<svg xmlns="http://www.w3.org/2000/svg" id="R&#xE9;teg_2" viewBox="0 0 1178.56 157.9"><defs><style>.cls-1{fill:#2a605a;}</style></defs><g id="R&#xE9;teg_1"><g><g><path class="cls-1" d="M104.5,76.1v.2c0,.47-.33,.78-1,.95-.67,.17-1.17,.28-1.5,.35-2.27,.13-4.53,.37-6.8,.7-2.27,.33-4.53,.67-6.8,1-1.2,.2-2.4,.4-3.6,.6-1.2,.2-2.4,.37-3.6,.5-.33,1.2-.63,2.38-.9,3.55-.27,1.17-.53,2.32-.8,3.45-.67,2.67-1.3,5.33-1.9,8-.6,2.67-1.17,5.33-1.7,8l-.9,4.8c.4,2.93,.6,5.87,.6,8.8,0,.93-.02,1.87-.05,2.8-.03,.93-.08,1.83-.15,2.7-.07,1.67-.2,3.42-.4,5.25-.2,1.83-.67,3.52-1.4,5.05-.6,1.2-1.43,1.8-2.5,1.8s-1.8-.7-2.2-2.1c-.33-1.47-.5-2.83-.5-4.1,0-1.6,.13-3.2,.4-4.8,.27-1.6,.5-3.13,.7-4.6,.67-4.93,1.57-9.73,2.7-14.4-.07-.47-.17-.9-.3-1.3-.13-.4-.23-.8-.3-1.2-.87-3.27-2.37-6.2-4.5-8.8-2.13-2.6-4.73-4.63-7.8-6.1-1-.47-2.02-.85-3.05-1.15-1.03-.3-2.08-.58-3.15-.85-2.27,.4-4.5,.82-6.7,1.25-2.2,.43-4.4,.88-6.6,1.35-.4,.07-.8,.15-1.2,.25-.4,.1-.8,.18-1.2,.25-1.47,2.47-2.92,4.93-4.35,7.4-1.43,2.46-2.82,4.93-4.15,7.4-1.33,2.4-2.65,4.8-3.95,7.2-1.3,2.4-2.55,4.83-3.75,7.3-1.27,2.4-2.5,4.83-3.7,7.3-1.2,2.47-2.33,4.93-3.4,7.4-.6,1.27-1.17,2.52-1.7,3.75-.53,1.23-1.07,2.48-1.6,3.75-.33,.93-.68,1.98-1.05,3.15-.37,1.17-.88,2.15-1.55,2.95-.53,.67-1.1,1-1.7,1-1.07,0-1.63-.7-1.7-2.1v-.2c0-1.13,.28-2.3,.85-3.5,.57-1.2,1.08-2.3,1.55-3.3,.6-1.33,1.18-2.63,1.75-3.9,.57-1.27,1.15-2.53,1.75-3.8,1.07-2.4,2.22-4.78,3.45-7.15,1.23-2.37,2.48-4.72,3.75-7.05,2.53-4.6,5.13-9.13,7.8-13.6,2.67-4.47,5.4-8.9,8.2-13.3l-4.2,.9c-1,.27-2,.5-3,.7s-2,.43-3,.7c-3.47,.73-6.93,1.5-10.4,2.3-3.47,.8-6.97,1.33-10.5,1.6h-.7c-.27,0-.57-.04-.9-.1-.33-.07-.6-.2-.8-.4-.27-.27-.4-.6-.4-1s.2-.77,.6-1.1c.4-.33,.8-.6,1.2-.8,1.47-.53,2.95-1.05,4.45-1.55s3.02-.98,4.55-1.45c2.67-.73,5.35-1.42,8.05-2.05,2.7-.63,5.42-1.18,8.15-1.65,2.73-.53,5.47-.93,8.2-1.2,.33-.07,.7-.12,1.1-.15,.4-.03,.77-.05,1.1-.05,2.6-3.93,5.23-7.85,7.9-11.75,2.67-3.9,5.37-7.78,8.1-11.65,1.6-2.27,3.2-4.5,4.8-6.7s3.2-4.43,4.8-6.7c.87-1.13,1.7-2.23,2.5-3.3,.8-1.07,1.6-2.17,2.4-3.3l5-6.6,9.8-13.3c.8-1.07,1.62-2.17,2.45-3.3,.83-1.13,1.65-2.23,2.45-3.3,1.73-2.2,3.52-4.45,5.35-6.75,1.83-2.3,3.92-4.28,6.25-5.95,.8-.6,1.63-.9,2.5-.9,.67,0,1.27,.25,1.8,.75,.53,.5,.8,1.22,.8,2.15v.3c-.13,2.2-.63,4.42-1.5,6.65-.87,2.23-1.67,4.42-2.4,6.55-1.87,5.13-3.67,10.28-5.4,15.45-1.73,5.17-3.37,10.42-4.9,15.75-1.47,5.07-2.9,10.18-4.3,15.35-1.4,5.17-2.77,10.32-4.1,15.45,1.07-.2,2.13-.4,3.2-.6,1.07-.2,2.13-.37,3.2-.5,2.4-.47,4.82-.85,7.25-1.15,2.43-.3,4.85-.58,7.25-.85h.7c.73,0,1.13,.2,1.2,.6Zm-69.5,11.2c.33-.4,.63-.82,.9-1.25,.27-.43,.53-.85,.8-1.25-.27,0-.5,.02-.7,.05-.2,.03-.43,.08-.7,.15-1.33,.13-2.67,.33-4,.6-1.33,.27-2.67,.53-4,.8-2.53,.6-5,1.29-7.4,2.05-2.4,.77-4.8,1.58-7.2,2.45,.47-.07,.9-.13,1.3-.2,.4-.07,.8-.13,1.2-.2l8.1-1.3c1.4-.2,2.78-.4,4.15-.6,1.37-.2,2.72-.43,4.05-.7,.6-.07,1.18-.17,1.75-.3,.57-.13,1.15-.23,1.75-.3Zm4.6-.8l10.2-1.8c-1.07-.13-2.12-.23-3.15-.3-1.03-.07-2.12-.1-3.25-.1-.6,.07-1.22,.1-1.85,.1s-1.25,.04-1.85,.1c-.27,.4-.5,.78-.7,1.15-.2,.37-.43,.75-.7,1.15,.2-.07,.42-.12,.65-.15,.23-.03,.45-.08,.65-.15Zm41-15.8c.73-2.67,1.47-5.32,2.2-7.95,.73-2.63,1.47-5.25,2.2-7.85,1.13-4,2.3-7.98,3.5-11.95,1.2-3.97,2.33-7.92,3.4-11.85l2.3-7.9c.4-1.33,.78-2.67,1.15-4,.37-1.33,.75-2.63,1.15-3.9,.47-1.27,.9-2.57,1.3-3.9,.4-1.33,.8-2.63,1.2-3.9,.07-.27,.13-.5,.2-.7,.07-.2,.13-.43,.2-.7-1.33,1.2-2.6,2.47-3.8,3.8-1.93,1.93-3.83,3.9-5.7,5.9-1.87,2-3.7,4.03-5.5,6.1-1.8,2-3.58,4.05-5.35,6.15-1.77,2.1-3.48,4.25-5.15,6.45-1.73,2.13-3.42,4.3-5.05,6.5-1.63,2.2-3.25,4.4-4.85,6.6-1.6,2.27-3.18,4.52-4.75,6.75-1.57,2.23-3.12,4.48-4.65,6.75-2.47,3.67-4.9,7.37-7.3,11.1-2.4,3.73-4.73,7.5-7,11.3,.53,0,1.07-.02,1.6-.05,.53-.03,1.03-.05,1.5-.05,1.4,0,2.8,.05,4.2,.15,1.4,.1,2.77,.28,4.1,.55,.27,0,.47,.03,.6,.1,.6-.13,1.18-.27,1.75-.4,.57-.13,1.15-.23,1.75-.3l16.1-3.1c1.07-.2,2.13-.4,3.2-.6,1.07-.2,2.17-.4,3.3-.6,.33-1.4,.7-2.82,1.1-4.25,.4-1.43,.77-2.85,1.1-4.25Zm-4.2,16l1.5-5.7-5.7,.9c-2.87,.47-5.7,.93-8.5,1.4-2.8,.47-5.63,.97-8.5,1.5,.73,.2,1.5,.42,2.3,.65,.8,.23,1.53,.52,2.2,.85,.67,.33,1.3,.67,1.9,1,.6,.33,1.2,.67,1.8,1,.87,.6,1.7,1.23,2.5,1.9,.8,.67,1.57,1.4,2.3,2.2,1.33,1.53,2.53,3.3,3.6,5.3,.2,.46,.42,.93,.65,1.4,.23,.47,.42,.97,.55,1.5,.53-2.33,1.08-4.65,1.65-6.95,.57-2.3,1.15-4.62,1.75-6.95Z"></path><path class="cls-1" d="M153.1,76.3c.13,.27,.2,.43,.2,.5,0,.47-.27,.77-.8,.9-.8,.33-1.6,.67-2.4,1-.8,.33-1.57,.63-2.3,.9-.93,.4-1.85,.82-2.75,1.25-.9,.43-1.82,.88-2.75,1.35-.93,.4-1.83,.85-2.7,1.35-.87,.5-1.77,1.02-2.7,1.55,.13,.2,.22,.42,.25,.65,.03,.23,.08,.48,.15,.75,.07,.27,.12,.55,.15,.85,.03,.3,.05,.58,.05,.85,0,.67-.07,1.3-.2,1.9-.13,.6-.27,1.2-.4,1.8-.13,.53-.32,1.05-.55,1.55-.23,.5-.48,1.02-.75,1.55-.73,1.47-1.67,2.9-2.8,4.3-1.13,1.4-2.47,2.5-4,3.3-.47,.27-1.02,.48-1.65,.65-.63,.17-1.25,.25-1.85,.25-1.07,0-2-.3-2.8-.9-.87-.67-1.3-1.63-1.3-2.9,0-.54,.1-1.1,.3-1.7,.47-1.27,1.18-2.42,2.15-3.45,.97-1.03,1.92-2.02,2.85-2.95,.73-.73,1.5-1.43,2.3-2.1,.8-.67,1.6-1.33,2.4-2,.4-.33,.8-.63,1.2-.9,.4-.27,.77-.53,1.1-.8-.2-.73-.57-1.37-1.1-1.9-.33-.4-.7-.78-1.1-1.15-.4-.37-.77-.78-1.1-1.25-.33-.47-.58-.93-.75-1.4-.17-.47-.25-.97-.25-1.5,0-.13-.02-.23-.05-.3-.03-.07-.05-.13-.05-.2s.02-.13,.05-.2c.03-.07,.05-.13,.05-.2,.07-1.27,.43-2.43,1.1-3.5,.27-.53,.58-1,.95-1.4,.37-.4,.75-.8,1.15-1.2,.87-.87,1.73-1.6,2.6-2.2,.47-.27,1-.53,1.6-.8,.6-.27,1.23-.4,1.9-.4h.65c.23,0,.45,.07,.65,.2,.4,.2,.75,.47,1.05,.8,.3,.33,.45,.73,.45,1.2s-.15,.87-.45,1.2c-.3,.33-.62,.63-.95,.9-.4,.33-.83,.63-1.3,.9-.47,.27-.93,.54-1.4,.8-.47,.27-.93,.52-1.4,.75-.47,.23-.93,.45-1.4,.65-.2,.13-.42,.27-.65,.4-.23,.13-.45,.23-.65,.3l-1.2,.5c-.07,.27-.1,.6-.1,1,0,.73,.2,1.4,.6,2,.27,.27,.58,.55,.95,.85,.37,.3,.78,.62,1.25,.95,.73,.73,1.33,1.47,1.8,2.2,.87-.53,1.72-1.07,2.55-1.6,.83-.53,1.68-1.03,2.55-1.5,1.13-.6,2.27-1.17,3.4-1.7,1.13-.53,2.32-1.07,3.55-1.6,1.23-.53,2.45-1,3.65-1.4h.2c.33,0,.6,.1,.8,.3Zm-19.3,11.9v-1.1c-.33,.27-.63,.5-.9,.7-.27,.2-.57,.43-.9,.7-.8,.6-1.58,1.25-2.35,1.95-.77,.7-1.48,1.42-2.15,2.15-.27,.33-.57,.7-.9,1.1-.33,.4-.63,.8-.9,1.2-.33,.6-.65,1.22-.95,1.85-.3,.63-.52,1.28-.65,1.95,0,.53,.03,.83,.1,.9,.07,.13,.23,.2,.5,.2h.3c.2,0,.5-.07,.9-.2,.6-.13,1.15-.4,1.65-.8s.95-.8,1.35-1.2c.93-.93,1.78-2,2.55-3.2,.77-1.2,1.38-2.43,1.85-3.7,.13-.4,.25-.8,.35-1.2,.1-.4,.15-.83,.15-1.3Z"></path><path class="cls-1" d="M171.9,76.8v.2c0,.27-.08,.48-.25,.65-.17,.17-.35,.35-.55,.55-.53,.67-1.08,1.28-1.65,1.85s-1.15,1.15-1.75,1.75c-1.53,1.53-3.1,3-4.7,4.4-1.67,1.53-3.4,3.07-5.2,4.6-.73,.53-1.45,1.07-2.15,1.6-.7,.53-1.48,.93-2.35,1.2-.27,.13-.53,.23-.8,.3-.27,.07-.57,.1-.9,.1s-.57-.03-.7-.1c-.73-.2-1.27-.7-1.6-1.5-.2-.4-.33-.82-.4-1.25-.07-.43-.1-.85-.1-1.25v-.7c.07-.27,.1-.57,.1-.9s.03-.63,.1-.9c.4-2.13,.95-4.27,1.65-6.4,.7-2.13,1.45-4.2,2.25-6.2l2.1-4.5c.33-.67,.93-1,1.8-1,.67,0,1.13,.23,1.4,.7,.2,.27,.3,.63,.3,1.1,0,.13-.02,.27-.05,.4-.03,.13-.08,.27-.15,.4-.93,2.2-1.92,4.37-2.95,6.5-1.03,2.13-1.98,4.33-2.85,6.6-.27,.67-.5,1.38-.7,2.15-.2,.77-.37,1.52-.5,2.25-.07,.2-.1,.42-.1,.65v.65c0,.47,.07,.8,.2,1,.07,.13,.27,.2,.6,.2,.4,0,.67-.03,.8-.1,.87-.2,1.67-.52,2.4-.95,.73-.43,1.43-.88,2.1-1.35,.93-.6,1.8-1.23,2.6-1.9,.8-.67,1.6-1.37,2.4-2.1,.8-.73,1.57-1.5,2.3-2.3,.73-.8,1.47-1.57,2.2-2.3l2.2-2.4c.27-.33,.52-.63,.75-.9,.23-.27,.52-.57,.85-.9,.13-.27,.37-.4,.7-.4h.1c.2,0,.37,.17,.5,.5Zm-12-15.6l-.6,.3c-.53,0-.93-.27-1.2-.8-.27-.4-.4-.77-.4-1.1,0-.2,.07-.37,.2-.5,.27-.27,.53-.52,.8-.75,.27-.23,.57-.48,.9-.75,.2-.2,.4-.38,.6-.55,.2-.17,.43-.35,.7-.55,.13-.2,.28-.4,.45-.6,.17-.2,.35-.4,.55-.6,.27-.27,.6-.4,1-.4,.87,0,1.37,.4,1.5,1.2v.2c0,.47-.13,.88-.4,1.25-.27,.37-.53,.72-.8,1.05-.47,.53-.98,1.02-1.55,1.45-.57,.43-1.15,.82-1.75,1.15Z"></path><path class="cls-1" d="M211,76.3h.1c.27,.07,.4,.3,.4,.7v.3c-.13,.47-.33,.83-.6,1.1-.53,.54-1.1,1.08-1.7,1.65-.6,.57-1.17,1.12-1.7,1.65l-2.4,2.1c-.4,.33-.8,.68-1.2,1.05-.4,.37-.8,.68-1.2,.95-1.67,1.33-3.4,2.6-5.2,3.8-1.8,1.2-3.67,2.23-5.6,3.1-.93,.46-1.92,.88-2.95,1.25-1.03,.37-2.12,.62-3.25,.75-.33,.07-.65,.12-.95,.15-.3,.03-.62,.05-.95,.05-.27,0-.5-.02-.7-.05-.2-.03-.43-.05-.7-.05-2.33-.2-4.33-1.1-6-2.7-.47-.33-.85-.72-1.15-1.15-.3-.43-.62-.88-.95-1.35-.27-.33-.48-.68-.65-1.05-.17-.37-.35-.72-.55-1.05-.47,.6-.92,1.22-1.35,1.85-.43,.63-.88,1.28-1.35,1.95-.53,.87-1.07,1.72-1.6,2.55-.53,.83-1.03,1.68-1.5,2.55-.27,.4-.5,.82-.7,1.25s-.43,.85-.7,1.25c-.33,.4-.7,.6-1.1,.6-.27,0-.47-.03-.6-.1-.47-.27-.7-.63-.7-1.1,0-.07,.02-.13,.05-.2,.03-.07,.05-.13,.05-.2,.27-.8,.53-1.62,.8-2.45,.27-.83,.53-1.65,.8-2.45l1.8-4.8c.6-1.53,1.22-3.1,1.85-4.7,.63-1.6,1.28-3.17,1.95-4.7,.07-.13,.12-.27,.15-.4,.03-.13,.08-.27,.15-.4l-.2-.2c-.27-.27-.4-.5-.4-.7v-.2c0-.2,.1-.4,.3-.6l1.8-3.3c.47-.73,.9-1.48,1.3-2.25,.4-.77,.83-1.48,1.3-2.15l.2-.3c.6-1.33,1.2-2.68,1.8-4.05,.6-1.37,1.23-2.68,1.9-3.95,1.47-3.07,2.97-6.12,4.5-9.15,1.53-3.03,3.07-6.05,4.6-9.05,1.53-2.87,3.17-5.83,4.9-8.9l2.4-4.5c.4-.73,.8-1.47,1.2-2.2,.4-.73,.8-1.47,1.2-2.2,.53-1,1.08-2,1.65-3,.57-1,1.18-1.97,1.85-2.9,.33-.53,.72-1.1,1.15-1.7,.43-.6,.92-1.03,1.45-1.3,.13-.07,.27-.12,.4-.15,.13-.03,.27-.05,.4-.05,.8,0,1.27,.37,1.4,1.1v.3c0,.73-.17,1.43-.5,2.1-.47,1.2-1,2.38-1.6,3.55-.6,1.17-1.23,2.28-1.9,3.35-.8,1.47-1.62,2.93-2.45,4.4-.83,1.47-1.68,2.93-2.55,4.4-.87,1.47-1.7,2.93-2.5,4.4-.8,1.47-1.63,2.97-2.5,4.5-1.67,2.93-3.3,5.88-4.9,8.85-1.6,2.97-3.2,5.95-4.8,8.95-.67,1.13-1.3,2.23-1.9,3.3-.6,1.07-1.2,2.17-1.8,3.3l-1.3,2.2c-.4,.73-.8,1.47-1.2,2.2-.4,.73-.83,1.47-1.3,2.2l-1.2,2.2c0,.07-.03,.1-.1,.1-.07,.2-.17,.42-.3,.65-.13,.23-.27,.45-.4,.65-.07,.07-.12,.12-.15,.15-.03,.03-.08,.08-.15,.15-.07,.2-.13,.4-.2,.6-.07,.2-.13,.4-.2,.6-.6,1.47-1.17,2.98-1.7,4.55s-1.07,3.12-1.6,4.65c.47-.67,.95-1.35,1.45-2.05s1.02-1.38,1.55-2.05c-.13-.47-.2-.73-.2-.8v-.2c0-.33,.1-.53,.3-.6,.4-.27,.8-.52,1.2-.75,.4-.23,.8-.45,1.2-.65,.87-.87,1.75-1.75,2.65-2.65,.9-.9,1.82-1.75,2.75-2.55,2.47-2.07,5-3.77,7.6-5.1,.73-.33,1.45-.65,2.15-.95,.7-.3,1.45-.55,2.25-.75,.4-.07,.82-.15,1.25-.25,.43-.1,.88-.15,1.35-.15s.83,.03,1.1,.1c1,.2,1.5,.8,1.5,1.8,0,.53-.13,.97-.4,1.3-.27,.33-.55,.62-.85,.85-.3,.23-.62,.45-.95,.65-.93,.6-1.92,1.15-2.95,1.65-1.03,.5-2.05,1.02-3.05,1.55-1.33,.6-2.68,1.2-4.05,1.8-1.37,.6-2.72,1.17-4.05,1.7-.47,.2-.9,.4-1.3,.6s-.83,.37-1.3,.5c-.47,.47-.92,.93-1.35,1.4-.43,.47-.85,.93-1.25,1.4-.27,.33-.52,.65-.75,.95-.23,.3-.48,.62-.75,.95,.13,.47,.32,.92,.55,1.35,.23,.43,.48,.85,.75,1.25,.53,.8,1.17,1.55,1.9,2.25,.73,.7,1.53,1.22,2.4,1.55,1,.46,2.17,.7,3.5,.7,.4,0,.78-.02,1.15-.05,.37-.03,.75-.08,1.15-.15,2-.33,3.92-1,5.75-2,1.83-1,3.58-2.07,5.25-3.2,.87-.53,1.7-1.12,2.5-1.75,.8-.63,1.6-1.28,2.4-1.95,.8-.73,1.6-1.43,2.4-2.1,.8-.67,1.57-1.33,2.3-2,.53-.53,1.1-1.07,1.7-1.6,.6-.53,1.17-1.07,1.7-1.6,.47-.47,.97-.7,1.5-.7Zm-21.8-33.7c-1.4,2.67-2.75,5.33-4.05,8-1.3,2.67-2.62,5.33-3.95,8,1.67-2.67,3.3-5.33,4.9-8,1.6-2.67,3.17-5.37,4.7-8.1,.93-1.53,1.77-3,2.5-4.4,.4-.73,.8-1.48,1.2-2.25,.4-.77,.77-1.52,1.1-2.25l.6-1.1,.5-1.2c.2-.4,.4-.78,.6-1.15,.2-.37,.37-.75,.5-1.15,.2-.47,.4-.9,.6-1.3,.2-.4,.4-.83,.6-1.3-.13,.13-.27,.3-.4,.5-.13,.2-.27,.37-.4,.5l-1.5,2.1c-.47,.73-.92,1.45-1.35,2.15-.43,.7-.88,1.42-1.35,2.15-.8,1.47-1.6,2.93-2.4,4.4-.8,1.47-1.6,2.93-2.4,4.4Zm-.5,31c-.93,.53-1.85,1.08-2.75,1.65-.9,.57-1.78,1.18-2.65,1.85,.73-.33,1.48-.7,2.25-1.1,.77-.4,1.52-.77,2.25-1.1l3.9-2.1c.33-.13,.63-.3,.9-.5,.27-.2,.53-.37,.8-.5-.13,.07-.27,.1-.4,.1s-.27,.04-.4,.1c-.67,.2-1.32,.43-1.95,.7-.63,.27-1.28,.57-1.95,.9Z"></path><path class="cls-1" d="M262.7,71.8v.2c0,.33-.17,.6-.5,.8-.27,.13-.47,.2-.6,.2-.2,0-.42-.03-.65-.1-.23-.07-.42-.13-.55-.2-.33-.07-.67-.12-1-.15-.33-.03-.67-.05-1-.05-1.33,.2-2.6,.6-3.8,1.2-.67,.27-1.32,.58-1.95,.95-.63,.37-1.25,.72-1.85,1.05l-3.6,2.4c-1.13,.87-2.27,1.77-3.4,2.7-1.13,.93-2.2,1.93-3.2,3-.53,.53-1.05,1.07-1.55,1.6-.5,.54-.98,1.07-1.45,1.6-.47,.6-.93,1.22-1.4,1.85-.47,.63-.87,1.28-1.2,1.95-.4,.6-1,.9-1.8,.9-.4,0-.7-.07-.9-.2-.6-.33-.9-.87-.9-1.6,0-.46,.1-.95,.3-1.45s.43-.95,.7-1.35c.33-.53,.65-1.1,.95-1.7,.3-.6,.62-1.17,.95-1.7,.4-.73,.82-1.47,1.25-2.2,.43-.73,.85-1.47,1.25-2.2l.5-1.1c.13-.2,.3-.55,.5-1.05,.2-.5,.37-.82,.5-.95l-2.1,1.5c-.6,.47-1.23,.92-1.9,1.35-.67,.43-1.33,.85-2,1.25-1.33,.87-2.68,1.7-4.05,2.5-1.37,.8-2.72,1.57-4.05,2.3-1.4,.8-2.8,1.58-4.2,2.35-1.4,.77-2.83,1.42-4.3,1.95-.6,.27-1.23,.48-1.9,.65-.67,.17-1.33,.25-2,.25-1,0-1.97-.3-2.9-.9-.73-.53-1.25-1.23-1.55-2.1-.3-.87-.45-1.73-.45-2.6,0-.33,.02-.68,.05-1.05,.03-.37,.08-.71,.15-1.05,.6-2.6,1.67-4.9,3.2-6.9,.53-.73,1.08-1.4,1.65-2,.57-.6,1.15-1.17,1.75-1.7,.67-.53,1.4-1.07,2.2-1.6,.8-.53,1.63-.93,2.5-1.2,.47-.2,1.03-.3,1.7-.3,.4,0,.87,.1,1.4,.3,.87,.47,1.3,1.17,1.3,2.1v.2c-.07,.67-.32,1.32-.75,1.95-.43,.63-.85,1.22-1.25,1.75-.33,.27-.63,.55-.9,.85-.27,.3-.53,.58-.8,.85-.93,.8-1.97,1.57-3.1,2.3-1.13,.73-2.33,1.1-3.6,1.1h-.5c-.2,0-.37-.03-.5-.1-.07,.2-.15,.38-.25,.55-.1,.17-.18,.35-.25,.55-.27,.6-.5,1.27-.7,2-.07,.33-.13,.67-.2,1-.07,.33-.1,.67-.1,1,0,.2,.02,.38,.05,.55,.03,.17,.08,.35,.15,.55,.13,.27,.27,.54,.4,.8,.13,.27,.37,.43,.7,.5,.27,.13,.7,.2,1.3,.2,.87,0,1.8-.17,2.8-.5,.67-.2,1.33-.45,2-.75,.67-.3,1.3-.58,1.9-.85,1.27-.67,2.6-1.47,4-2.4,1.27-.87,2.52-1.77,3.75-2.7,1.23-.93,2.48-1.87,3.75-2.8,.6-.46,1.2-.93,1.8-1.4,.6-.47,1.23-.93,1.9-1.4,.53-.4,1.1-.82,1.7-1.25,.6-.43,1.17-.85,1.7-1.25,.4-.27,.8-.48,1.2-.65,.4-.17,.83-.25,1.3-.25,1,.07,1.67,.6,2,1.6,.07,.2,.1,.47,.1,.8s-.03,.67-.1,1c-.07,.33-.13,.63-.2,.9-.2,.87-.48,1.72-.85,2.55-.37,.83-.72,1.65-1.05,2.45-.13,.27-.28,.57-.45,.9-.17,.33-.35,.67-.55,1,.13-.13,.3-.27,.5-.4,.2-.13,.37-.27,.5-.4,.47-.47,.97-.9,1.5-1.3,.53-.4,1.03-.83,1.5-1.3l3-2.7c1.13-.93,2.3-1.85,3.5-2.75s2.43-1.75,3.7-2.55c.73-.4,1.47-.78,2.2-1.15,.73-.37,1.5-.62,2.3-.75,.2-.07,.42-.1,.65-.1h.75c1.13,0,2.03,.3,2.7,.9,.13,.13,.28,.33,.45,.6,.17,.27,.25,.53,.25,.8Zm-49.8,5.8c-.13,.2-.27,.4-.4,.6-.13,.2-.27,.4-.4,.6,.33-.07,.68-.17,1.05-.3,.37-.13,.68-.27,.95-.4,1.2-.73,2.33-1.67,3.4-2.8,.27-.27,.5-.55,.7-.85,.2-.3,.43-.58,.7-.85,.13-.13,.27-.37,.4-.7,.13-.13,.27-.33,.4-.6l.3-.6c-.13,.07-.27,.12-.4,.15-.13,.03-.27,.08-.4,.15-.33,.13-.63,.28-.9,.45-.27,.17-.57,.35-.9,.55-.27,.2-.53,.42-.8,.65-.27,.23-.53,.45-.8,.65-.67,.53-1.17,1.07-1.5,1.6-.53,.54-1,1.1-1.4,1.7Z"></path><path class="cls-1" d="M319.8,76.3c.13,.13,.2,.27,.2,.4,0,.6-.27,.97-.8,1.1-.6,.27-1.2,.5-1.8,.7s-1.2,.43-1.8,.7c-.8,.27-1.58,.57-2.35,.9-.77,.33-1.52,.67-2.25,1-1.07,.47-2.17,.95-3.3,1.45-1.13,.5-2.23,1.02-3.3,1.55,.27,.8,.47,1.67,.6,2.6v.8c0,1.67-.47,3.33-1.4,5-.27,.4-.57,.8-.9,1.2-.33,.4-.63,.77-.9,1.1-.67,.67-1.4,1.25-2.2,1.75-.8,.5-1.6,.95-2.4,1.35-1.07,.47-2.17,.88-3.3,1.25-1.13,.37-2.27,.58-3.4,.65h-1.1c-.53,0-1.05-.03-1.55-.1-.5-.07-.98-.27-1.45-.6-.67-.47-1.07-1.13-1.2-2v-.2c0-.53,.15-1.05,.45-1.55s.62-.92,.95-1.25c.47-.53,1.1-1.1,1.9-1.7,1.53-1.2,3.13-2.33,4.8-3.4,1.67-1.07,3.33-2.1,5-3.1,.47-.33,1.1-.71,1.9-1.15,.8-.43,1.23-.65,1.3-.65-.2-.6-.43-1.23-.7-1.9-.27-.67-.57-1.37-.9-2.1-.13-.4-.28-.82-.45-1.25-.17-.43-.28-.88-.35-1.35-.07-.33-.12-.7-.15-1.1-.03-.4-.05-.77-.05-1.1-.6,.53-1.2,1.05-1.8,1.55-.6,.5-1.2,1.02-1.8,1.55-1.27,1.07-2.6,2.07-4,3-1.4,.93-2.83,1.87-4.3,2.8-.73,.47-1.48,.9-2.25,1.3-.77,.4-1.52,.8-2.25,1.2-.73,.4-1.48,.78-2.25,1.15-.77,.37-1.55,.72-2.35,1.05l-2.4,.9c-.8,.27-1.6,.5-2.4,.7-.8,.2-1.63,.3-2.5,.3h-.5c-1.4,0-2.47-.47-3.2-1.4-.53-.6-.92-1.28-1.15-2.05-.23-.77-.35-1.58-.35-2.45v-.65c0-.23,.03-.48,.1-.75,.13-.93,.37-1.83,.7-2.7,.33-.87,.7-1.7,1.1-2.5,.27-.4,.52-.8,.75-1.2,.23-.4,.48-.77,.75-1.1,1.07-1.47,2.33-2.77,3.8-3.9,.8-.67,1.57-1.17,2.3-1.5,.87-.53,1.77-.9,2.7-1.1h.6c.73,0,1.4,.18,2,.55,.6,.37,.9,.92,.9,1.65,0,.33-.03,.6-.1,.8-.2,.73-.63,1.5-1.3,2.3-.8,1.07-1.7,2.05-2.7,2.95-1,.9-2.13,1.65-3.4,2.25-.93,.47-1.9,.7-2.9,.7-.4,0-.7-.03-.9-.1-.13,.27-.23,.5-.3,.7-.07,.2-.13,.4-.2,.6-.2,.54-.38,1.08-.55,1.65-.17,.57-.25,1.15-.25,1.75,0,.13,.02,.27,.05,.4,.03,.13,.05,.27,.05,.4,0,.33,.05,.68,.15,1.05,.1,.37,.28,.65,.55,.85,.33,.27,.9,.4,1.7,.4,.27,0,.53-.02,.8-.05,.27-.03,.5-.05,.7-.05,.8-.07,1.6-.22,2.4-.45,.8-.23,1.57-.48,2.3-.75,1.53-.53,3.03-1.18,4.5-1.95,1.47-.77,2.9-1.58,4.3-2.45,2.8-1.8,5.47-3.77,8-5.9,.67-.53,1.3-1.08,1.9-1.65,.6-.57,1.2-1.12,1.8-1.65,.33-.27,.67-.55,1-.85,.33-.3,.63-.58,.9-.85,.33-.27,.68-.6,1.05-1,.37-.4,.82-.67,1.35-.8h.2c.47,0,.77,.23,.9,.7v.4c0,.4-.07,.77-.2,1.1-.13,.33-.27,.67-.4,1-.53,1-.8,2.1-.8,3.3,0,.47,.03,.92,.1,1.35,.07,.43,.2,.88,.4,1.35,.27,.6,.53,1.18,.8,1.75,.27,.57,.57,1.18,.9,1.85,1.07-.53,2.12-1.07,3.15-1.6,1.03-.53,2.12-1.07,3.25-1.6,1.13-.6,2.32-1.15,3.55-1.65,1.23-.5,2.45-.98,3.65-1.45,.27-.07,.53-.17,.8-.3,.27-.13,.53-.2,.8-.2s.5,.1,.7,.3Zm-48.4,1.6c-.13,.2-.28,.42-.45,.65-.17,.23-.32,.48-.45,.75,.87-.2,1.63-.5,2.3-.9,.67-.46,1.28-.96,1.85-1.5,.57-.53,1.12-1.1,1.65-1.7,.27-.27,.52-.57,.75-.9,.23-.33,.45-.63,.65-.9,.07-.2,.17-.4,.3-.6,.13-.2,.23-.4,.3-.6-.6,.13-1.27,.43-2,.9-.6,.4-1.2,.85-1.8,1.35s-1.13,1.05-1.6,1.65c-.47,.47-.97,1.07-1.5,1.8Zm30.3,8.9c.07-.13,.1-.37,.1-.7,0-.27-.03-.47-.1-.6-1.4,.73-2.77,1.52-4.1,2.35-1.33,.83-2.67,1.72-4,2.65-1.27,.93-2.43,2.07-3.5,3.4-.33,.33-.63,.68-.9,1.05-.27,.37-.47,.78-.6,1.25,.27,0,.53-.02,.8-.05,.27-.03,.53-.08,.8-.15,.93-.13,1.83-.33,2.7-.6,.87-.27,1.73-.6,2.6-1,.67-.33,1.32-.7,1.95-1.1,.63-.4,1.18-.83,1.65-1.3,.6-.53,1.13-1.17,1.6-1.9,.67-1.13,1-2.23,1-3.3Z"></path><path class="cls-1" d="M371.7,76.4c.07,0,.13-.02,.2-.05,.07-.03,.13-.05,.2-.05,.27,0,.47,.17,.6,.5v.3c0,.33-.13,.63-.4,.9-.27,.27-.53,.53-.8,.8-.8,.8-1.63,1.55-2.5,2.25-.87,.7-1.77,1.38-2.7,2.05-1.27,.87-2.55,1.7-3.85,2.5s-2.62,1.53-3.95,2.2c-1.47,.73-2.9,1.33-4.3,1.8-.67,.2-1.35,.38-2.05,.55-.7,.17-1.42,.25-2.15,.25-1.07,0-2.2-.27-3.4-.8-1.2-.67-2.08-1.6-2.65-2.8-.57-1.2-.85-2.43-.85-3.7v-.9c0-.27,.02-.52,.05-.75,.03-.23,.08-.48,.15-.75,.4-2.2,1.27-4.23,2.6-6.1,1.33-1.87,2.9-3.43,4.7-4.7,1.27-.87,2.67-1.67,4.2-2.4,1-.33,1.9-.5,2.7-.5h.4c1,.2,1.6,.73,1.8,1.6v.4c0,.4-.08,.77-.25,1.1-.17,.33-.35,.63-.55,.9-.47,.6-1,1.13-1.6,1.6-.6,.47-1.23,.87-1.9,1.2-1.2,.87-2.53,1.6-4,2.2-.47,.27-.93,.48-1.4,.65-.47,.17-.97,.32-1.5,.45-.13,.33-.27,.63-.4,.9-.13,.27-.27,.53-.4,.8-.2,.6-.38,1.22-.55,1.85-.17,.63-.25,1.25-.25,1.85v.5c0,.67,.1,1.35,.3,2.05s.6,1.28,1.2,1.75c.47,.4,1,.68,1.6,.85,.6,.17,1.23,.25,1.9,.25,1.13,0,2.1-.13,2.9-.4,1.93-.53,3.75-1.33,5.45-2.4,1.7-1.07,3.35-2.2,4.95-3.4,.87-.67,1.72-1.35,2.55-2.05,.83-.7,1.68-1.42,2.55-2.15,.2-.2,.42-.4,.65-.6,.23-.2,.48-.37,.75-.5Zm-19.1-3.9c-.27,.2-.65,.53-1.15,1-.5,.47-.85,.8-1.05,1,.47-.2,.93-.47,1.4-.8,.4-.27,.8-.52,1.2-.75,.4-.23,.8-.52,1.2-.85,.27-.27,.53-.5,.8-.7,.27-.2,.53-.43,.8-.7,.07-.07,.17-.17,.3-.3,.13-.13,.27-.27,.4-.4-.87,.4-1.6,.83-2.2,1.3-.27,.13-.55,.32-.85,.55-.3,.23-.58,.45-.85,.65Zm-.9-10c-.33-.13-.5-.4-.5-.8,0-.2,.03-.37,.1-.5,.13-.2,.3-.38,.5-.55,.2-.17,.37-.28,.5-.35,1.47-1.2,2.9-2.47,4.3-3.8,1.4-1.33,2.73-2.67,4-4,.73-.73,1.43-1.1,2.1-1.1h.2c.53,.07,.92,.27,1.15,.6,.23,.33,.35,.7,.35,1.1,0,.33-.1,.7-.3,1.1-.13,.27-.32,.5-.55,.7-.23,.2-.48,.43-.75,.7-.27,.27-.55,.52-.85,.75-.3,.23-.62,.48-.95,.75-.33,.27-.68,.52-1.05,.75-.37,.23-.72,.38-1.05,.45-.13,0-.27,.02-.4,.05-.13,.03-.23,.05-.3,.05-.07,.07-.17,.15-.3,.25-.13,.1-.27,.18-.4,.25-.27,.27-.53,.5-.8,.7-.27,.2-.57,.43-.9,.7-.73,.67-1.5,1.23-2.3,1.7-.2,.13-.42,.27-.65,.4-.23,.13-.52,.2-.85,.2-.07,0-.12-.02-.15-.05-.03-.03-.08-.05-.15-.05Z"></path><path class="cls-1" d="M408.5,76.4h.2c.33,0,.5,.23,.5,.7,0,.33-.07,.63-.2,.9-.07,.13-.15,.27-.25,.4-.1,.13-.22,.27-.35,.4-.2,.27-.4,.55-.6,.85-.2,.3-.4,.58-.6,.85-1.33,1.67-2.67,3.3-4,4.9-1.33,1.6-2.73,3.13-4.2,4.6-.93,1.07-1.9,2.08-2.9,3.05-1,.97-2.03,1.92-3.1,2.85-1.07,.93-2.13,1.85-3.2,2.75-1.07,.9-2.17,1.78-3.3,2.65-1.13,.87-2.33,1.67-3.6,2.4-1.27,.73-2.57,1.37-3.9,1.9-1.27,.53-2.6,.8-4,.8-.73,0-1.48-.12-2.25-.35-.77-.23-1.48-.62-2.15-1.15-1.2-1-2-2.37-2.4-4.1-.4-1.73-.6-3.37-.6-4.9,0-2.87,.3-5.7,.9-8.5,.53-2.8,1.23-5.53,2.1-8.2,.87-2.67,1.77-5.3,2.7-7.9,1-2.67,2.03-5.28,3.1-7.85,1.07-2.57,2.13-5.12,3.2-7.65,.53-1.33,1.1-2.62,1.7-3.85,.6-1.23,1.2-2.48,1.8-3.75,.6-1.27,1.2-2.52,1.8-3.75,.6-1.23,1.23-2.48,1.9-3.75,1.27-2.47,2.57-4.92,3.9-7.35,1.33-2.43,2.73-4.85,4.2-7.25,1.47-2.33,2.98-4.67,4.55-7,1.57-2.33,3.22-4.6,4.95-6.8,1.33-1.67,2.73-3.27,4.2-4.8,1.47-1.53,3.03-2.97,4.7-4.3,1-.8,2.12-1.53,3.35-2.2,1.23-.67,2.52-1,3.85-1h.2c.67,.07,1.27,.28,1.8,.65,.53,.37,.97,.78,1.3,1.25,.53,.73,.88,1.52,1.05,2.35,.17,.83,.25,1.68,.25,2.55,0,.27-.02,.55-.05,.85-.03,.3-.05,.58-.05,.85-.07,.73-.17,1.43-.3,2.1-.13,.67-.27,1.37-.4,2.1-.73,2.73-1.65,5.38-2.75,7.95-1.1,2.57-2.35,5.08-3.75,7.55-1.33,2.47-2.78,4.85-4.35,7.15-1.57,2.3-3.18,4.55-4.85,6.75-1.73,2.27-3.5,4.45-5.3,6.55-1.8,2.1-3.67,4.18-5.6,6.25-1.93,2-3.88,3.98-5.85,5.95-1.97,1.97-3.98,3.88-6.05,5.75-1.8,1.67-3.62,3.32-5.45,4.95-1.83,1.63-3.72,3.18-5.65,4.65-.2,.13-.38,.27-.55,.4-.17,.13-.35,.27-.55,.4-.13,.53-.27,1.02-.4,1.45-.13,.43-.23,.88-.3,1.35-.33,1.33-.63,2.68-.9,4.05-.27,1.37-.53,2.72-.8,4.05-.2,1.27-.37,2.54-.5,3.8-.13,1.27-.2,2.57-.2,3.9,0,1.47,.1,2.83,.3,4.1,.13,.87,.38,1.68,.75,2.45,.37,.77,.95,1.38,1.75,1.85,.33,.2,.72,.33,1.15,.4,.43,.07,.85,.1,1.25,.1,.47,0,.97-.05,1.5-.15,.53-.1,1.03-.18,1.5-.25,.33-.07,.67-.17,1-.3,.33-.13,.63-.27,.9-.4,.93-.33,1.83-.78,2.7-1.35,.87-.57,1.73-1.12,2.6-1.65,1.07-.8,2.13-1.67,3.2-2.6,.47-.47,.97-.92,1.5-1.35,.53-.43,1.03-.92,1.5-1.45,1-.93,1.97-1.92,2.9-2.95,.93-1.03,1.87-2.05,2.8-3.05,.47-.53,.92-1.07,1.35-1.6,.43-.53,.85-1.07,1.25-1.6,.93-1.07,1.82-2.13,2.65-3.2,.83-1.07,1.68-2.17,2.55-3.3,.13-.13,.27-.3,.4-.5,.13-.2,.27-.37,.4-.5,.13-.27,.3-.53,.5-.8,.2-.27,.4-.5,.6-.7,.27-.27,.6-.4,1-.4Zm-27.8-20.1c-.67,1.53-1.32,3.07-1.95,4.6-.63,1.54-1.18,3.07-1.65,4.6-.87,2.47-1.67,4.97-2.4,7.5v-.1c.53-.46,1.07-.9,1.6-1.3,.53-.4,1.07-.83,1.6-1.3,1.07-.87,2.12-1.77,3.15-2.7,1.03-.93,2.05-1.87,3.05-2.8,4.2-3.73,8.2-7.53,12-11.4,1.93-2,3.83-4.02,5.7-6.05,1.87-2.03,3.67-4.12,5.4-6.25,1.73-2.13,3.42-4.33,5.05-6.6,1.63-2.27,3.15-4.57,4.55-6.9,.67-1.2,1.32-2.4,1.95-3.6,.63-1.2,1.22-2.47,1.75-3.8,.53-1.27,1.03-2.55,1.5-3.85,.47-1.3,.83-2.62,1.1-3.95,.33-1.53,.5-2.97,.5-4.3,0-.6-.03-1.2-.1-1.8-.07-.6-.2-1.17-.4-1.7-.13-.47-.32-.9-.55-1.3-.23-.4-.55-.73-.95-1-.4-.2-.77-.3-1.1-.3-.47,0-.92,.08-1.35,.25-.43,.17-.85,.35-1.25,.55-1.2,.6-2.33,1.32-3.4,2.15-1.07,.83-2.07,1.72-3,2.65s-1.87,1.9-2.8,2.9c-.93,1-1.83,2.03-2.7,3.1-1.73,2.13-3.4,4.32-5,6.55-1.6,2.23-3.17,4.52-4.7,6.85-5.93,9.2-11.13,18.97-15.6,29.3Z"></path><path class="cls-1" d="M490.09,53c0,.07,.02,.13,.05,.2,.03,.07,.05,.13,.05,.2,0,.54-.27,1-.8,1.4-.47,.27-1,.4-1.6,.4-.13,0-.27-.02-.4-.05-.13-.03-.27-.05-.4-.05-.8-.2-1.33-.6-1.6-1.2-.13-.27-.37-.43-.7-.5-.33-.07-.63-.13-.9-.2-.93-.13-1.87-.27-2.8-.4-.93-.13-1.83-.23-2.7-.3-2.33-.13-4.67-.23-7-.3-2.33-.07-4.67-.13-7-.2-.87,0-1.73-.02-2.6-.05-.87-.03-1.77-.05-2.7-.05-.2,.4-.4,.79-.6,1.15-.2,.37-.4,.72-.6,1.05-.87,1.6-1.7,3.2-2.5,4.8-.8,1.6-1.63,3.23-2.5,4.9-1.73,3.2-3.42,6.43-5.05,9.7-1.63,3.27-3.28,6.53-4.95,9.8-2.07,4.07-4.07,8.15-6,12.25-1.93,4.1-3.87,8.22-5.8,12.35-.27,.73-.58,1.47-.95,2.2-.37,.73-.72,1.43-1.05,2.1,.67,.2,1,.67,1,1.4,0,.07-.02,.13-.05,.2-.03,.07-.05,.13-.05,.2-.2,.73-.57,1.37-1.1,1.9-.27,.4-.57,.78-.9,1.15-.33,.37-.67,.72-1,1.05-.47,.33-.9,.5-1.3,.5-1.2,0-1.8-.63-1.8-1.9v-.1c.07-.47,.18-.92,.35-1.35,.17-.43,.35-.85,.55-1.25,.2-.47,.4-.9,.6-1.3s.4-.8,.6-1.2c.4-.87,.8-1.7,1.2-2.5,.4-.8,.83-1.6,1.3-2.4l2.6-4.8,5.1-9.7c.87-1.6,1.72-3.22,2.55-4.85,.83-1.63,1.68-3.25,2.55-4.85,1.73-3.27,3.43-6.5,5.1-9.7,1.67-3.2,3.37-6.43,5.1-9.7,.8-1.6,1.63-3.2,2.5-4.8,.87-1.6,1.7-3.23,2.5-4.9,.13-.2,.27-.42,.4-.65,.13-.23,.23-.45,.3-.65h-4.8l-3,3.9c-1.67,2.13-3.37,4.27-5.1,6.4-1.73,2.13-3.5,4.23-5.3,6.3-1.33,1.47-2.68,2.95-4.05,4.45-1.37,1.5-2.78,2.95-4.25,4.35-1.13,1.13-2.32,2.23-3.55,3.3-1.23,1.07-2.48,2.13-3.75,3.2-1.27,1-2.58,1.97-3.95,2.9-1.37,.93-2.82,1.77-4.35,2.5-.33,.2-.7,.38-1.1,.55-.4,.17-.8,.32-1.2,.45-1.13,.47-2.23,.7-3.3,.7-1.4,0-2.57-.5-3.5-1.5-.53-.6-.92-1.28-1.15-2.05-.23-.77-.35-1.55-.35-2.35,0-.47,.03-.97,.1-1.5,.07-.53,.17-1.03,.3-1.5,.2-.87,.5-1.7,.9-2.5,1-2.33,2.5-4.47,4.5-6.4,.67-.53,1.35-1.07,2.05-1.6,.7-.53,1.45-1,2.25-1.4,.93-.47,1.93-.7,3-.7,.67,0,1.25,.15,1.75,.45,.5,.3,.78,.82,.85,1.55v.3c0,.8-.3,1.57-.9,2.3-.87,1.27-1.88,2.42-3.05,3.45-1.17,1.03-2.42,1.85-3.75,2.45-.93,.47-1.83,.7-2.7,.7-.4,0-.7-.03-.9-.1-.4,.8-.7,1.6-.9,2.4-.07,.4-.15,.8-.25,1.2-.1,.4-.15,.8-.15,1.2s.07,.87,.2,1.4c.27,1.13,1.07,1.7,2.4,1.7,.73,0,1.43-.1,2.1-.3,.67-.2,1.33-.43,2-.7,1.07-.47,2.13-1,3.2-1.6,1.07-.6,2.07-1.23,3-1.9,.27-.27,.57-.5,.9-.7,.33-.2,.67-.43,1-.7,2.47-2,4.87-4.1,7.2-6.3,2.93-2.8,5.7-5.67,8.3-8.6,.67-.73,1.28-1.43,1.85-2.1,.57-.67,1.15-1.33,1.75-2,2.33-2.67,4.67-5.5,7-8.5,.33-.47,.7-.97,1.1-1.5,.4-.53,.8-1.03,1.2-1.5-4.8,.07-9.6,.27-14.4,.6-2.33,.07-4.67,.2-7,.4-2.33,.2-4.67,.4-7,.6-2.33,.2-4.67,.4-7,.6-2.33,.2-4.63,.43-6.9,.7-2.33,.2-4.67,.42-7,.65-2.33,.23-4.67,.52-7,.85-1.13,.07-2.28,.18-3.45,.35-1.17,.17-2.32,.32-3.45,.45-1,.13-2,.28-3,.45-1,.17-1.97,.25-2.9,.25h-1c-.53,0-.8-.27-.8-.8,0-.27,.13-.5,.4-.7,.53-.33,1.1-.6,1.7-.8,.6-.2,1.2-.33,1.8-.4,1.67-.27,3.4-.5,5.2-.7s3.57-.37,5.3-.5c2.27-.27,4.58-.48,6.95-.65,2.37-.17,4.72-.32,7.05-.45,4.67-.27,9.33-.53,14-.8,4.67-.27,9.33-.5,14-.7l14.1-.7h1.4c.53-.73,1.07-1.47,1.6-2.2,.53-.73,1.07-1.47,1.6-2.2,1.07-1.46,2.1-2.96,3.1-4.5,1-1.53,1.97-3.07,2.9-4.6l5.7-9.3c.53-.8,1.03-1.58,1.5-2.35,.47-.77,.97-1.55,1.5-2.35,.27-.4,.53-.82,.8-1.25,.27-.43,.57-.82,.9-1.15,.47-.33,.9-.5,1.3-.5s.77,.17,1.1,.5c.33,.33,.5,.73,.5,1.2v.4c-.07,.4-.2,.82-.4,1.25-.2,.43-.37,.85-.5,1.25-.73,1.73-1.5,3.42-2.3,5.05-.8,1.63-1.67,3.25-2.6,4.85-.87,1.6-1.75,3.2-2.65,4.8-.9,1.6-1.78,3.2-2.65,4.8-.53,1-1.08,1.98-1.65,2.95-.57,.97-1.12,1.95-1.65,2.95,.73,0,1.48-.02,2.25-.05,.77-.03,1.52-.08,2.25-.15,1.67-.07,3.33-.1,5-.1h9.1c1.47,.07,2.98,.12,4.55,.15,1.57,.03,3.08,.25,4.55,.65,.53,.13,1.07,.37,1.6,.7,.53,.33,.87,.8,1,1.4Zm-80.4,26c-.07,.07-.1,.12-.1,.15,0,.04-.03,.08-.1,.15,.33-.07,.7-.18,1.1-.35,.4-.17,.73-.35,1-.55,.27-.13,.57-.32,.9-.55,.33-.23,.63-.48,.9-.75,.27-.27,.53-.52,.8-.75,.27-.23,.53-.52,.8-.85,.33-.4,.68-.82,1.05-1.25,.37-.43,.68-.92,.95-1.45l.3-.6c-.27,.07-.52,.15-.75,.25-.23,.1-.48,.22-.75,.35-.27,.13-.57,.32-.9,.55-.33,.23-.63,.45-.9,.65-1.2,1-2.23,2.07-3.1,3.2-.2,.27-.42,.55-.65,.85-.23,.3-.42,.62-.55,.95Zm49.2-30.5c.4-.87,.8-1.7,1.2-2.5,.4-.8,.8-1.63,1.2-2.5l2.3-4.9,1.9-4.3c-.47,.73-.97,1.43-1.5,2.1-.53,.67-1.03,1.33-1.5,2-1.13,1.47-2.23,2.93-3.3,4.4-1.07,1.47-2.17,2.93-3.3,4.4-.4,.53-.82,1.1-1.25,1.7-.43,.6-.88,1.2-1.35,1.8,.73-.07,1.48-.1,2.25-.1s1.55-.03,2.35-.1c.13-.33,.28-.67,.45-1,.17-.33,.35-.67,.55-1Z"></path><path class="cls-1" d="M492.69,76.7v.1c0,.27-.08,.5-.25,.7-.17,.2-.32,.37-.45,.5l-1,.8c-.27,.27-.57,.53-.9,.8-.33,.27-.67,.53-1,.8-.73,.54-1.43,1.04-2.1,1.5-.67,.47-1.37,.93-2.1,1.4-.6,.33-1.2,.65-1.8,.95-.6,.3-1.23,.52-1.9,.65-.13,0-.23,.02-.3,.05-.07,.03-.17,.05-.3,.05-.93,0-1.7-.37-2.3-1.1-.13-.2-.25-.42-.35-.65-.1-.23-.22-.45-.35-.65-.2-.87-.33-1.72-.4-2.55-.07-.83-.17-1.68-.3-2.55,0-.2-.02-.38-.05-.55-.03-.17-.08-.35-.15-.55-.2-.46-.47-.7-.8-.7h-.1c-.13,0-.27,.02-.4,.05-.13,.03-.27,.08-.4,.15-.6,.33-1.13,.8-1.6,1.4-.53,.53-1.07,1.12-1.6,1.75-.53,.63-1.03,1.28-1.5,1.95-.27,.33-.5,.7-.7,1.1s-.4,.8-.6,1.2c-.13,.4-.25,.8-.35,1.2-.1,.4-.22,.77-.35,1.1-.07,.27-.2,.53-.4,.8-.2,.27-.43,.47-.7,.6-.2,.13-.5,.2-.9,.2-.53,0-1-.2-1.4-.6-.27-.33-.4-.77-.4-1.3,0-.33,.03-.6,.1-.8,.13-.47,.28-.88,.45-1.25,.17-.37,.35-.75,.55-1.15,.33-.87,.68-1.77,1.05-2.7,.37-.93,.62-1.9,.75-2.9,.07-.2,.1-.5,.1-.9,0-.47-.07-.73-.2-.8-.07-.13-.27-.2-.6-.2s-.57,.03-.7,.1c-.27,.13-.55,.28-.85,.45-.3,.17-.58,.35-.85,.55-.8,.53-1.4,1.07-1.8,1.6-1.27,1.27-2.33,2.53-3.2,3.8-.33,.47-.67,.93-1,1.4-.33,.47-.63,.97-.9,1.5-.13,.27-.27,.53-.4,.8-.13,.27-.27,.53-.4,.8-1.33,2.53-2.73,4.93-4.2,7.2-.27,.27-.57,.65-.9,1.15-.33,.5-.73,.75-1.2,.75-.2,0-.43-.1-.7-.3-.4-.2-.6-.57-.6-1.1,0-.33,.1-.6,.3-.8,.4-.93,.82-1.88,1.25-2.85,.43-.96,.88-1.92,1.35-2.85,.87-1.87,1.73-3.77,2.6-5.7,.87-1.93,1.67-3.87,2.4-5.8,.47-1,.83-1.93,1.1-2.8,.13-.27,.23-.5,.3-.7,.07-.2,.13-.43,.2-.7,.07-.13,.12-.28,.15-.45,.03-.17,.12-.32,.25-.45,.27-.27,.67-.4,1.2-.4,.47,0,.97,.13,1.5,.4,.47,.33,.73,.6,.8,.8v.3c0,.4-.03,.67-.1,.8-.27,.8-.52,1.6-.75,2.4-.23,.8-.52,1.57-.85,2.3-.2,.47-.37,.9-.5,1.3,.2-.27,.42-.53,.65-.8,.23-.27,.48-.53,.75-.8,.47-.6,1.07-1.23,1.8-1.9,.27-.27,.58-.55,.95-.85,.37-.3,.78-.55,1.25-.75,.4-.2,.87-.3,1.4-.3,.87,0,1.57,.27,2.1,.8,.47,.53,.73,1.1,.8,1.7,.07,.27,.12,.52,.15,.75,.03,.23,.05,.48,.05,.75,0,.47-.03,.83-.1,1.1l.1-.1c.47-.73,1.03-1.4,1.7-2,.47-.47,.95-.88,1.45-1.25,.5-.37,1.05-.62,1.65-.75,.13-.07,.37-.1,.7-.1,1.2,0,2.03,.5,2.5,1.5,.4,.73,.6,1.52,.6,2.35s.03,1.62,.1,2.35c0,.47,.02,.9,.05,1.3,.03,.4,.08,.77,.15,1.1,.13,.27,.27,.53,.4,.8,.13,.27,.33,.43,.6,.5,.13,0,.23,.02,.3,.05,.07,.03,.13,.05,.2,.05,.33,0,.63-.07,.9-.2,.27-.13,.53-.23,.8-.3,.73-.33,1.37-.67,1.9-1,.73-.47,1.42-.93,2.05-1.4,.63-.47,1.28-.97,1.95-1.5,.33-.27,.67-.53,1-.8,.33-.27,.63-.53,.9-.8l.9-.8c.47-.33,.87-.53,1.2-.6,.4,0,.6,.17,.6,.5Z"></path><path class="cls-1" d="M515.19,76.3c.27,0,.4,.13,.4,.4,0,.2-.13,.4-.4,.6-.27,.2-.47,.33-.6,.4-.53,.33-1.1,.62-1.7,.85-.6,.23-1.2,.48-1.8,.75-1.6,.6-3.2,1.1-4.8,1.5-2.2,.6-4.37,1-6.5,1.2-.33,.67-.7,1.32-1.1,1.95-.4,.63-.8,1.28-1.2,1.95-.47,.73-.97,1.43-1.5,2.1-.53,.67-1.1,1.3-1.7,1.9-.4,.4-.88,.8-1.45,1.2-.57,.4-1.18,.6-1.85,.6-.33,0-.7-.1-1.1-.3-.4-.27-.68-.67-.85-1.2-.17-.53-.25-1.03-.25-1.5,0-.33,.02-.67,.05-1,.03-.33,.08-.67,.15-1,.13-.4,.23-.82,.3-1.25,.07-.43,.17-.85,.3-1.25,.4-1.6,.9-3.07,1.5-4.4-.2-.53-.3-1-.3-1.4,.07-.67,.27-1.33,.6-2,.33-.67,.67-1.27,1-1.8,.53-.67,1.08-1.33,1.65-2,.57-.67,1.25-1.27,2.05-1.8,.47-.27,.97-.52,1.5-.75,.53-.23,1.07-.35,1.6-.35,.47,0,.9,.1,1.3,.3,.73,.33,1.25,.87,1.55,1.6,.3,.73,.45,1.5,.45,2.3,0,.47-.05,.97-.15,1.5-.1,.54-.18,1-.25,1.4-.2,.67-.43,1.32-.7,1.95-.27,.63-.57,1.25-.9,1.85,.93-.13,1.85-.28,2.75-.45,.9-.17,1.78-.38,2.65-.65,.47-.07,.92-.18,1.35-.35,.43-.17,.88-.32,1.35-.45,.93-.27,1.85-.57,2.75-.9,.9-.33,1.78-.73,2.65-1.2,.4-.2,.8-.3,1.2-.3Zm-18.6,9c.4-.47,.77-.98,1.1-1.55,.33-.57,.63-1.12,.9-1.65h-2.4c-1,0-1.9-.13-2.7-.4l-1.5,3.3c-.2,.53-.38,1.08-.55,1.65-.17,.57-.28,1.12-.35,1.65-.07,.2-.1,.5-.1,.9v.4c0,.07,.02,.1,.05,.1s.05,.03,.05,.1c.07,0,.17-.03,.3-.1,.33-.07,.65-.18,.95-.35,.3-.17,.62-.35,.95-.55,.6-.53,1.18-1.08,1.75-1.65s1.08-1.18,1.55-1.85Zm2.6-4.6c.53-1.27,.97-2.7,1.3-4.3,.07-.4,.12-.78,.15-1.15,.03-.37,.05-.75,.05-1.15-.07-.33-.13-.67-.2-1-.07-.33-.17-.63-.3-.9-.27-.4-.63-.6-1.1-.6-.33,0-.68,.08-1.05,.25-.37,.17-.68,.32-.95,.45-.6,.4-1.2,.9-1.8,1.5-.13,.13-.35,.35-.65,.65-.3,.3-.52,.55-.65,.75h.5c.67,.2,1.1,.6,1.3,1.2v.3c0,.13-.07,.33-.2,.6-.13,.2-.23,.38-.3,.55-.07,.17-.13,.35-.2,.55-.2,.33-.38,.68-.55,1.05-.17,.37-.32,.72-.45,1.05,.6,.2,1.33,.3,2.2,.3h1.85c.37,0,.72-.03,1.05-.1Zm-3.8-14.3h-.3c-.33-.13-.5-.43-.5-.9,0-.2,.03-.37,.1-.5,.07-.13,.2-.28,.4-.45,.2-.17,.37-.32,.5-.45,1.47-1.13,2.9-2.37,4.3-3.7,1.4-1.33,2.77-2.7,4.1-4.1,.27-.27,.58-.5,.95-.7,.37-.2,.75-.3,1.15-.3h.2c1,.07,1.5,.6,1.5,1.6,0,.47-.1,.83-.3,1.1-.13,.27-.32,.5-.55,.7-.23,.2-.48,.43-.75,.7-.53,.54-1.17,1.07-1.9,1.6-.67,.53-1.37,.9-2.1,1.1-.13,.07-.23,.1-.3,.1s-.17,.03-.3,.1c-.27,.07-.5,.2-.7,.4-.53,.53-1.1,1-1.7,1.4-.73,.67-1.5,1.23-2.3,1.7-.53,.4-1.03,.6-1.5,.6Z"></path><path class="cls-1" d="M568.19,6.7c.07,.13,.1,.33,.1,.6,0,.33-.03,.57-.1,.7-.13,1.07-.38,2.12-.75,3.15-.37,1.03-.78,2.02-1.25,2.95-.87,1.93-1.8,3.82-2.8,5.65-1,1.83-1.97,3.68-2.9,5.55l-1.9,3.7c-1.27,2.53-2.57,5-3.9,7.4-1.33,2.4-2.67,4.8-4,7.2-.73,1.27-1.43,2.5-2.1,3.7-.67,1.2-1.33,2.4-2,3.6-.33,.54-.68,1.1-1.05,1.7-.37,.6-.75,1.2-1.15,1.8l-1.5,2.6c-.27,.53-.5,1.08-.7,1.65-.2,.57-.43,1.12-.7,1.65-2.13,5.13-4.22,10.27-6.25,15.4-2.03,5.13-4.02,10.27-5.95,15.4-.93,2.6-1.87,5.2-2.8,7.8-.93,2.6-1.77,5.23-2.5,7.9-.4,1.33-.78,2.67-1.15,4-.37,1.33-.68,2.67-.95,4-.07,.27-.12,.57-.15,.9-.03,.33-.08,.67-.15,1-.07,.33-.1,.67-.1,1v1.7c.07,.13,.12,.28,.15,.45,.03,.17,.15,.25,.35,.25h.6c.2,0,.37,.03,.5,.1,.2,.2,.3,.4,.3,.6s-.07,.37-.2,.5c-.4,.47-.9,.7-1.5,.7-1,0-1.67-.47-2-1.4-.27-.6-.4-1.33-.4-2.2,0-.33,.02-.65,.05-.95,.03-.3,.08-.62,.15-.95,.07-.33,.13-.68,.2-1.05,.07-.37,.13-.72,.2-1.05,.27-1.4,.58-2.78,.95-4.15,.37-1.37,.75-2.72,1.15-4.05,.4-1.33,.83-2.67,1.3-4,.47-1.33,.93-2.63,1.4-3.9,.47-1.27,.93-2.57,1.4-3.9,.47-1.33,.97-2.63,1.5-3.9,.93-2.6,1.93-5.18,3-7.75,1.07-2.57,2.13-5.12,3.2-7.65,.67-1.73,1.38-3.48,2.15-5.25,.77-1.77,1.52-3.48,2.25-5.15-.8,1.27-1.6,2.5-2.4,3.7-.8,1.2-1.6,2.4-2.4,3.6-1.53,2.33-3.12,4.63-4.75,6.9-1.63,2.27-3.35,4.47-5.15,6.6-.87,1.13-1.77,2.23-2.7,3.3-.93,1.07-1.93,2.07-3,3-.53,.53-1.13,1.03-1.8,1.5-.67,.47-1.33,.83-2,1.1-.6,.27-1.33,.4-2.2,.4-.8,0-1.47-.13-2-.4-.93-.53-1.5-1.3-1.7-2.3-.07-.27-.12-.52-.15-.75-.03-.23-.05-.48-.05-.75,0-1,.17-2,.5-3,.47-1.4,1.05-2.75,1.75-4.05,.7-1.3,1.45-2.55,2.25-3.75,1-1.53,2.1-3.03,3.3-4.5,1.2-1.47,2.57-2.73,4.1-3.8,.67-.47,1.37-.87,2.1-1.2,.73-.33,1.5-.5,2.3-.5,1.67,0,3,.5,4,1.5,.4,.4,.73,.8,1,1.2,.27,.4,.5,.8,.7,1.2,.13,.4,.2,.73,.2,1l2.4-3.3c2.73-3.8,5.33-7.7,7.8-11.7,1.13-2.47,2.27-4.97,3.4-7.5,1.13-2.53,2.23-5.07,3.3-7.6,.6-1.33,1.18-2.62,1.75-3.85,.57-1.23,1.15-2.48,1.75-3.75,.53-1.27,1.1-2.52,1.7-3.75,.6-1.23,1.2-2.48,1.8-3.75,.53-1.27,1.1-2.53,1.7-3.8,.6-1.27,1.17-2.53,1.7-3.8,.53-1.27,1.08-2.53,1.65-3.8,.57-1.27,1.15-2.53,1.75-3.8,.47-.93,.93-1.88,1.4-2.85,.47-.97,.97-1.88,1.5-2.75,.33-.47,.67-1,1-1.6,.33-.6,.73-1.03,1.2-1.3,.33-.2,.63-.3,.9-.3,.73,0,1.2,.4,1.4,1.2Zm-40.7,71.4c.13-.2,.28-.38,.45-.55,.17-.17,.32-.35,.45-.55h-.3c-.27,0-.53-.07-.8-.2-.53-.33-.97-.77-1.3-1.3-.27-.73-.7-1.17-1.3-1.3h-.2c-.33,0-.7,.1-1.1,.3-.4,.2-.77,.4-1.1,.6-.73,.53-1.43,1.15-2.1,1.85-.67,.7-1.3,1.38-1.9,2.05-.67,.73-1.32,1.5-1.95,2.3-.63,.8-1.22,1.63-1.75,2.5-.53,.8-1.05,1.6-1.55,2.4-.5,.8-.92,1.67-1.25,2.6-.13,.33-.27,.68-.4,1.05-.13,.37-.2,.75-.2,1.15,0,.13,.02,.23,.05,.3,.03,.07,.05,.13,.05,.2,0,.2,.13,.3,.4,.3,.13,0,.25,.02,.35,.05,.1,.03,.22,.05,.35,.05s.27-.02,.4-.05c.13-.03,.23-.05,.3-.05,.6-.2,1.17-.47,1.7-.8,.53-.33,1.03-.67,1.5-1,1.13-.87,2.2-1.77,3.2-2.7,1-.93,1.93-1.9,2.8-2.9,.87-1,1.75-2.02,2.65-3.05,.9-1.03,1.75-2.12,2.55-3.25Zm36.6-64.8v-.1l-.2,.4-3,5.4c-.33,.6-.67,1.2-1,1.8-.33,.6-.67,1.2-1,1.8-.33,.6-.67,1.2-1,1.8-.33,.6-.67,1.23-1,1.9-.33,.6-.63,1.2-.9,1.8-.27,.6-.57,1.23-.9,1.9-.6,1.27-1.2,2.52-1.8,3.75-.6,1.23-1.17,2.48-1.7,3.75-.6,1.27-1.18,2.53-1.75,3.8-.57,1.27-1.15,2.53-1.75,3.8-.47,1.13-.97,2.3-1.5,3.5-.53,1.2-1.07,2.4-1.6,3.6,.87-1.47,1.73-2.93,2.6-4.4,.87-1.47,1.73-2.97,2.6-4.5,.67-1.2,1.32-2.4,1.95-3.6,.63-1.2,1.28-2.43,1.95-3.7,1.27-2.4,2.53-4.83,3.8-7.3,.33-.67,.65-1.3,.95-1.9s.58-1.23,.85-1.9c.13-.33,.28-.65,.45-.95,.17-.3,.32-.62,.45-.95,.13-.27,.27-.57,.4-.9,.13-.33,.27-.67,.4-1,.53-1.27,1.02-2.57,1.45-3.9,.43-1.33,.85-2.63,1.25-3.9Z"></path><path class="cls-1" d="M577.39,76.3l.1,.2c0,.07-.07,.17-.2,.3-.2,.2-.43,.3-.7,.3h-.3c-.6-.07-1.2-.17-1.8-.3-.6-.13-1.2-.27-1.8-.4-.73-.2-1.47-.43-2.2-.7-.73-.27-1.43-.57-2.1-.9-.4-.13-.77-.32-1.1-.55-.33-.23-.67-.48-1-.75-.67-.67-1.13-1.37-1.4-2.1,0-.2-.03-.33-.1-.4-1.13,1.73-2.27,3.48-3.4,5.25-1.13,1.77-2.27,3.52-3.4,5.25-.73,1.2-1.48,2.38-2.25,3.55-.77,1.17-1.52,2.35-2.25,3.55l-2.3,3.5c-.6,.87-1.18,1.77-1.75,2.7-.57,.93-1.22,1.8-1.95,2.6-.33,.47-.72,.9-1.15,1.3-.43,.4-.92,.7-1.45,.9-.4,.13-.73,.2-1,.2-1.07,0-1.83-.43-2.3-1.3-.27-.47-.43-1-.5-1.6-.07-.6-.13-1.17-.2-1.7,0-.54,.02-1.04,.05-1.5,.03-.47,.08-.97,.15-1.5,.07-.93,.17-1.83,.3-2.7,.13-.87,.3-1.73,.5-2.6,.33-1.4,.67-2.8,1-4.2,.33-1.4,.73-2.77,1.2-4.1,.27-.67,.52-1.33,.75-2,.23-.67,.52-1.33,.85-2,.27-.53,.5-1.03,.7-1.5,.2-.47,.43-.93,.7-1.4,.2-.4,.53-.6,1-.6,.8,.13,1.4,.4,1.8,.8,.13,.07,.32,.2,.55,.4,.23,.2,.35,.43,.35,.7,0,.13-.03,.23-.1,.3-.93,2.33-1.8,4.72-2.6,7.15-.8,2.43-1.53,4.88-2.2,7.35-.13,.67-.28,1.33-.45,2-.17,.67-.32,1.33-.45,2-.07,.27-.12,.57-.15,.9-.03,.33-.08,.67-.15,1-.07,.33-.1,.67-.1,1s-.03,.63-.1,.9v.7c.07-.07,.23-.2,.5-.4,.27-.2,.43-.33,.5-.4,1.27-1.13,2.47-2.37,3.6-3.7,1.13-1.33,2.2-2.67,3.2-4,.8-1.13,1.58-2.28,2.35-3.45,.77-1.17,1.52-2.35,2.25-3.55,1.53-2.4,2.93-4.8,4.2-7.2,.47-.8,.92-1.62,1.35-2.45,.43-.83,.85-1.68,1.25-2.55,.13-.27,.27-.53,.4-.8,.13-.27,.27-.57,.4-.9,.07-.27,.17-.53,.3-.8,.13-.27,.33-.47,.6-.6,.27-.13,.5-.2,.7-.2,.07,0,.13,.02,.2,.05,.07,.03,.17,.05,.3,.05,.47,.27,.7,.7,.7,1.3v.3c-.07,.33-.22,.65-.45,.95-.23,.3-.42,.62-.55,.95-.2,.47-.3,.93-.3,1.4,0,.33,.03,.57,.1,.7,.13,.67,.47,1.23,1,1.7,.53,.47,1.1,.87,1.7,1.2,.67,.27,1.37,.5,2.1,.7,.73,.2,1.43,.37,2.1,.5,.4,.07,.78,.13,1.15,.2,.37,.07,.72,.13,1.05,.2,.27,.07,.53,.12,.8,.15,.27,.04,.53,.08,.8,.15,.27,0,.47,.17,.6,.5Z"></path><path class="cls-1" d="M618.49,76.3c.47,0,.73,.17,.8,.5,0,.53-.27,1-.8,1.4l-1.1,.9c-1.13,.87-2.27,1.75-3.4,2.65-1.13,.9-2.3,1.75-3.5,2.55-.8,.53-1.6,1.07-2.4,1.6-.8,.54-1.63,1.04-2.5,1.5-1.27,.67-2.62,1.3-4.05,1.9-1.43,.6-2.88,.93-4.35,1h-1c-.93,0-1.82-.12-2.65-.35-.83-.23-1.62-.65-2.35-1.25-.87-.73-1.52-1.58-1.95-2.55-.43-.96-.75-1.95-.95-2.95-.2-1-.3-2.03-.3-3.1,0-.33,.02-.63,.05-.9,.03-.27,.05-.57,.05-.9-.2,.27-.38,.52-.55,.75-.17,.23-.35,.48-.55,.75-.33,.33-.67,.7-1,1.1-.33,.4-.63,.77-.9,1.1-1.33,1.47-2.67,2.9-4,4.3-.67,.73-1.4,1.47-2.2,2.2-.8,.73-1.67,1.33-2.6,1.8-.67,.33-1.3,.5-1.9,.5-1.13,0-1.87-.57-2.2-1.7-.07-.27-.1-.63-.1-1.1,0-.67,.08-1.32,.25-1.95,.17-.63,.35-1.25,.55-1.85,.2-.53,.38-1.03,.55-1.5,.17-.47,.35-.93,.55-1.4,.47-.87,.93-1.75,1.4-2.65,.47-.9,.97-1.78,1.5-2.65,.53-.93,1.13-1.83,1.8-2.7,.67-.87,1.43-1.63,2.3-2.3,.47-.27,.95-.53,1.45-.8,.5-.27,1.02-.43,1.55-.5h.3c1.07,0,1.83,.3,2.3,.9,.53,.53,.8,1.2,.8,2,0,.27-.05,.53-.15,.8-.1,.27-.18,.54-.25,.8-.2,.47-.53,.7-1,.7-.33,0-.6-.13-.8-.4-.13-.13-.25-.27-.35-.4-.1-.13-.22-.23-.35-.3,0-.07-.07-.1-.2-.1s-.23,.03-.3,.1c-.47,.2-.9,.5-1.3,.9-.4,.4-.73,.77-1,1.1-.27,.33-.53,.68-.8,1.05-.27,.37-.57,.75-.9,1.15-1,1.47-1.9,3.07-2.7,4.8-.4,.87-.77,1.7-1.1,2.5-.07,.2-.15,.48-.25,.85-.1,.37-.18,.65-.25,.85,.2-.13,.42-.28,.65-.45,.23-.17,.45-.35,.65-.55,.73-.53,1.47-1.12,2.2-1.75,.73-.63,1.43-1.28,2.1-1.95,1.4-1.27,2.73-2.6,4-4,1.07-1,2.03-2.07,2.9-3.2,.27-.27,.53-.6,.8-1,.07-.27,.3-.4,.7-.4,.2,0,.33,.03,.4,.1,.27,.07,.4,.33,.4,.8-.13,.47-.23,.92-.3,1.35-.07,.43-.13,.92-.2,1.45-.07,.54-.12,1.04-.15,1.5-.03,.47-.05,.97-.05,1.5,0,.47,.02,.9,.05,1.3,.03,.4,.08,.8,.15,1.2,.07,.87,.27,1.72,.6,2.55,.33,.83,.83,1.55,1.5,2.15,.6,.53,1.25,.88,1.95,1.05,.7,.17,1.42,.25,2.15,.25,1.13,0,2.3-.17,3.5-.5,1.8-.6,3.5-1.4,5.1-2.4,.8-.47,1.6-.97,2.4-1.5,.8-.53,1.57-1.07,2.3-1.6,1.67-1.13,3.2-2.27,4.6-3.4l3.3-2.7c.2-.13,.37-.25,.5-.35,.13-.1,.33-.15,.6-.15Zm-35.5-11.1h-.3c-.33-.13-.5-.4-.5-.8,0-.27,.03-.43,.1-.5,.13-.2,.28-.37,.45-.5,.17-.13,.32-.27,.45-.4,1.53-1.2,3-2.47,4.4-3.8,1.4-1.33,2.73-2.67,4-4,.6-.73,1.3-1.1,2.1-1.1h.2c.53,.07,.92,.27,1.15,.6,.23,.33,.35,.7,.35,1.1s-.1,.73-.3,1c-.13,.27-.32,.52-.55,.75-.23,.23-.48,.45-.75,.65-.6,.53-1.23,1.07-1.9,1.6-.27,.27-.58,.5-.95,.7-.37,.2-.75,.37-1.15,.5-.27,0-.47,.03-.6,.1-.2,.07-.43,.23-.7,.5-.27,.2-.53,.42-.8,.65-.27,.23-.57,.48-.9,.75-.87,.67-1.63,1.2-2.3,1.6-.53,.4-1.03,.6-1.5,.6Z"></path><path class="cls-1" d="M718.29,42.3v.3c0,.67-.37,1.2-1.1,1.6-.33,.2-.73,.3-1.2,.3-.2,0-.5-.07-.9-.2-.27-.07-.48-.23-.65-.5-.17-.27-.42-.47-.75-.6-.87-.27-1.72-.47-2.55-.6-.83-.13-1.68-.27-2.55-.4-3.47-.47-7-.77-10.6-.9-.87-.07-1.77-.1-2.7-.1h-5.3c-.87,0-1.77,.03-2.7,.1-.93,0-1.88,.02-2.85,.05-.97,.03-1.92,.08-2.85,.15-1.73,3.13-3.37,6.2-4.9,9.2-1.73,3.27-3.42,6.57-5.05,9.9-1.63,3.33-3.25,6.67-4.85,10-1.53,3.33-3.07,6.68-4.6,10.05-1.53,3.37-3,6.75-4.4,10.15-.73,1.73-1.4,3.45-2,5.15-.6,1.7-1.17,3.42-1.7,5.15-.53,1.53-.93,3.13-1.2,4.8-.13,.47-.2,.93-.2,1.4v3.4c0,.8-.3,1.2-.9,1.2-.33,0-.7-.17-1.1-.5-.4-.33-.7-.67-.9-1-.27-.6-.4-1.33-.4-2.2,0-.4,.02-.82,.05-1.25,.03-.43,.08-.85,.15-1.25,.47-2.8,1.2-5.55,2.2-8.25,1-2.7,2.07-5.32,3.2-7.85,.73-1.73,1.5-3.43,2.3-5.1,.8-1.67,1.6-3.33,2.4-5,.87-1.67,1.7-3.33,2.5-5,.8-1.67,1.63-3.33,2.5-5,1.73-3.27,3.48-6.53,5.25-9.8,1.77-3.27,3.52-6.53,5.25-9.8l4.5-8.3c-.53,.07-1.07,.1-1.6,.1s-1.03,.03-1.5,.1c-.47,.07-.9,.1-1.3,.1s-.83,.04-1.3,.1c-.33,.53-.7,1.1-1.1,1.7-.4,.6-.77,1.17-1.1,1.7l-10.2,15.6c-1.33,2.13-2.78,4.23-4.35,6.3-1.57,2.07-3.15,4.1-4.75,6.1-2.2,2.67-4.45,5.3-6.75,7.9-2.3,2.6-4.72,5.03-7.25,7.3-1.53,1.47-3.12,2.83-4.75,4.1-1.63,1.27-3.42,2.37-5.35,3.3-1.73,.87-3.5,1.3-5.3,1.3-1.4,0-2.72-.35-3.95-1.05-1.23-.7-2.15-1.85-2.75-3.45-.53-1.73-.8-3.4-.8-5,0-1.33,.12-2.68,.35-4.05,.23-1.37,.52-2.68,.85-3.95,.33-1.33,.73-2.67,1.2-4,.47-1.33,.93-2.63,1.4-3.9,1.93-5.2,4.03-10.3,6.3-15.3,.53-1.27,1.08-2.52,1.65-3.75,.57-1.23,1.15-2.48,1.75-3.75,1.8-3.73,3.68-7.42,5.65-11.05,1.97-3.63,4.02-7.22,6.15-10.75,1.8-2.93,3.68-5.82,5.65-8.65,1.97-2.83,4.08-5.58,6.35-8.25,1.33-1.6,2.77-3.15,4.3-4.65,1.53-1.5,3.23-2.78,5.1-3.85,.53-.33,1.1-.6,1.7-.8,.6-.2,1.23-.3,1.9-.3h.75c.23,0,.45,.07,.65,.2,1.47,.67,2.43,1.83,2.9,3.5,.33,1.2,.5,2.37,.5,3.5,0,1.47-.18,2.98-.55,4.55-.37,1.57-.78,3.02-1.25,4.35-.67,2-1.47,3.95-2.4,5.85-.93,1.9-1.93,3.75-3,5.55-1.33,2.4-2.77,4.72-4.3,6.95-1.53,2.23-3.13,4.45-4.8,6.65,.13-.07,.37-.1,.7-.1,1.73-.13,3.5-.27,5.3-.4,1.8-.13,3.6-.23,5.4-.3l7.6-.4c.6-.87,1.18-1.73,1.75-2.6,.57-.87,1.15-1.73,1.75-2.6l3-4.6c.53-.8,1.03-1.6,1.5-2.4,.47-.8,.97-1.57,1.5-2.3,1-1.53,2-3.1,3-4.7,1-1.6,2.03-3.17,3.1-4.7,.47-.73,.98-1.48,1.55-2.25,.57-.77,1.12-1.55,1.65-2.35,.33-.4,.65-.8,.95-1.2,.3-.4,.65-.77,1.05-1.1,.27-.27,.57-.55,.9-.85,.33-.3,.7-.48,1.1-.55h.3c.67,0,1.17,.3,1.5,.9,.2,.4,.3,.77,.3,1.1,0,.6-.1,1.1-.3,1.5-.33,.8-.68,1.62-1.05,2.45-.37,.83-.75,1.62-1.15,2.35-.47,.87-.93,1.7-1.4,2.5-.47,.8-.93,1.6-1.4,2.4-.87,1.6-1.8,3.18-2.8,4.75-1,1.57-1.97,3.15-2.9,4.75-.93,1.47-1.8,2.97-2.6,4.5-.8,1.53-1.63,3.07-2.5,4.6l5-.2c1.8-.07,3.6-.15,5.4-.25,1.8-.1,3.6-.18,5.4-.25,.73,0,1.48-.02,2.25-.05,.77-.03,1.52-.05,2.25-.05,1.07,0,2.12,.02,3.15,.05,1.03,.03,2.08,.08,3.15,.15,.87,.07,1.77,.13,2.7,.2,.93,.07,1.87,.17,2.8,.3,.53,.07,1.05,.13,1.55,.2,.5,.07,.98,.23,1.45,.5,.6,.33,.93,.8,1,1.4Zm-47.6,2.5l1.8-2.7c-2.93,.2-5.82,.45-8.65,.75-2.83,.3-5.68,.62-8.55,.95-.47,.07-.92,.12-1.35,.15-.43,.03-.85,.08-1.25,.15-1.47,1.87-2.97,3.68-4.5,5.45-1.53,1.77-3.07,3.48-4.6,5.15-3.8,4-7.7,7.9-11.7,11.7-1,.93-2,1.87-3,2.8s-2.03,1.87-3.1,2.8c-.47,.47-.97,.93-1.5,1.4-.53,.47-1.07,.9-1.6,1.3l-1.5,1.4c-.2,.13-.38,.28-.55,.45-.17,.17-.35,.28-.55,.35-.13,.6-.27,1.18-.4,1.75-.13,.57-.23,1.15-.3,1.75l-.6,3.9c-.07,.73-.12,1.42-.15,2.05-.03,.63-.05,1.25-.05,1.85,0,.33,.02,.65,.05,.95,.03,.3,.05,.62,.05,.95,.07,.33,.12,.63,.15,.9,.03,.27,.12,.57,.25,.9,.33,1.13,.9,2,1.7,2.6,.8,.6,1.9,.9,3.3,.9,1.07,0,2.3-.27,3.7-.8,1.27-.53,2.43-1.13,3.5-1.8,1.2-.67,2.3-1.47,3.3-2.4,1.13-.8,2.2-1.67,3.2-2.6,1-.93,1.97-1.87,2.9-2.8,1.87-1.93,3.7-3.95,5.5-6.05,1.8-2.1,3.53-4.22,5.2-6.35,.47-.53,.9-1.08,1.3-1.65s.8-1.12,1.2-1.65c.47-.47,.9-.98,1.3-1.55,.4-.57,.8-1.12,1.2-1.65,.4-.53,.8-1.08,1.2-1.65s.8-1.15,1.2-1.75c.07-.13,.17-.27,.3-.4,.13-.13,.23-.27,.3-.4l.6-1,1.5-2.3,3.1-4.6,6.1-9.2Zm-48.3,23.7c-.2,.67-.45,1.53-.75,2.6-.3,1.07-.48,1.63-.55,1.7l3.1-2.7c1-.87,2-1.77,3-2.7,1-.93,2-1.87,3-2.8,2.07-1.8,4.07-3.67,6-5.6s3.87-3.87,5.8-5.8c1.33-1.4,2.68-2.85,4.05-4.35,1.37-1.5,2.68-2.98,3.95-4.45-.87,.13-1.75,.27-2.65,.4-.9,.13-1.78,.27-2.65,.4-.87,.13-1.7,.27-2.5,.4-.8,.13-1.57,.27-2.3,.4,.07,.13,.1,.33,.1,.6,0,.2-.03,.33-.1,.4-.13,.2-.3,.3-.5,.3-.53,.13-.97,.2-1.3,.2-1.07,0-1.83-.3-2.3-.9-.13-.27-.2-.53-.2-.8,0-.53,.2-.93,.6-1.2,.4-.27,.85-.47,1.35-.6,.5-.13,.98-.27,1.45-.4,.87-.13,1.73-.27,2.6-.4,.87-.13,1.77-.27,2.7-.4,1.33-.13,2.63-.27,3.9-.4,1.27-.13,2.57-.27,3.9-.4,.13-.13,.27-.28,.4-.45,.13-.17,.27-.35,.4-.55,1.73-2.13,3.4-4.3,5-6.5,1.6-2.2,3.1-4.47,4.5-6.8,.73-1.13,1.42-2.3,2.05-3.5,.63-1.2,1.22-2.43,1.75-3.7,.47-1.27,.93-2.53,1.4-3.8,.47-1.27,.83-2.57,1.1-3.9,.13-.67,.23-1.33,.3-2,.07-.67,.1-1.33,.1-2s-.03-1.32-.1-1.95c-.07-.63-.23-1.25-.5-1.85-.13-.53-.4-1.03-.8-1.5-.4-.47-.9-.7-1.5-.7-.87,.07-1.83,.4-2.9,1-1.13,.67-2.22,1.43-3.25,2.3-1.03,.87-1.98,1.77-2.85,2.7-.93,.93-1.85,1.92-2.75,2.95-.9,1.03-1.78,2.08-2.65,3.15-3.33,4.13-6.5,8.57-9.5,13.3-3,4.53-5.8,9.22-8.4,14.05-2.6,4.83-5,9.75-7.2,14.75-.53,1.27-1.05,2.55-1.55,3.85s-.98,2.58-1.45,3.85c-.27,.6-.5,1.22-.7,1.85-.2,.63-.4,1.28-.6,1.95Zm58-28.1l.1-.2c.93-1.67,1.82-3.32,2.65-4.95,.83-1.63,1.68-3.28,2.55-4.95,.8-1.67,1.6-3.33,2.4-5,.8-1.67,1.6-3.33,2.4-5,.27-.47,.52-.93,.75-1.4l.75-1.5c-.13,.13-.28,.3-.45,.5-.17,.2-.32,.37-.45,.5-1.13,1.47-2.25,2.93-3.35,4.4-1.1,1.47-2.22,2.93-3.35,4.4l-3.3,4.5c-.53,.73-1.07,1.48-1.6,2.25-.53,.77-1.07,1.52-1.6,2.25l-3,4.5,1.6-.1,3.9-.2Z"></path><path class="cls-1" d="M718.79,76.3c.47,0,.73,.17,.8,.5,0,.53-.27,1-.8,1.4l-1.1,.9c-1.13,.87-2.27,1.75-3.4,2.65-1.13,.9-2.3,1.75-3.5,2.55-.8,.53-1.6,1.07-2.4,1.6-.8,.54-1.63,1.04-2.5,1.5-1.27,.67-2.62,1.3-4.05,1.9-1.43,.6-2.88,.93-4.35,1h-1c-.93,0-1.82-.12-2.65-.35-.83-.23-1.62-.65-2.35-1.25-.87-.73-1.52-1.58-1.95-2.55-.43-.96-.75-1.95-.95-2.95-.2-1-.3-2.03-.3-3.1,0-.33,.02-.63,.05-.9,.03-.27,.05-.57,.05-.9-.2,.27-.38,.52-.55,.75-.17,.23-.35,.48-.55,.75-.33,.33-.67,.7-1,1.1-.33,.4-.63,.77-.9,1.1-1.33,1.47-2.67,2.9-4,4.3-.67,.73-1.4,1.47-2.2,2.2-.8,.73-1.67,1.33-2.6,1.8-.67,.33-1.3,.5-1.9,.5-1.13,0-1.87-.57-2.2-1.7-.07-.27-.1-.63-.1-1.1,0-.67,.08-1.32,.25-1.95,.17-.63,.35-1.25,.55-1.85,.2-.53,.38-1.03,.55-1.5,.17-.47,.35-.93,.55-1.4,.47-.87,.93-1.75,1.4-2.65,.47-.9,.97-1.78,1.5-2.65,.53-.93,1.13-1.83,1.8-2.7,.67-.87,1.43-1.63,2.3-2.3,.47-.27,.95-.53,1.45-.8,.5-.27,1.02-.43,1.55-.5h.3c1.07,0,1.83,.3,2.3,.9,.53,.53,.8,1.2,.8,2,0,.27-.05,.53-.15,.8-.1,.27-.18,.54-.25,.8-.2,.47-.53,.7-1,.7-.33,0-.6-.13-.8-.4-.13-.13-.25-.27-.35-.4-.1-.13-.22-.23-.35-.3,0-.07-.07-.1-.2-.1s-.23,.03-.3,.1c-.47,.2-.9,.5-1.3,.9-.4,.4-.73,.77-1,1.1-.27,.33-.53,.68-.8,1.05-.27,.37-.57,.75-.9,1.15-1,1.47-1.9,3.07-2.7,4.8-.4,.87-.77,1.7-1.1,2.5-.07,.2-.15,.48-.25,.85-.1,.37-.18,.65-.25,.85,.2-.13,.42-.28,.65-.45,.23-.17,.45-.35,.65-.55,.73-.53,1.47-1.12,2.2-1.75,.73-.63,1.43-1.28,2.1-1.95,1.4-1.27,2.73-2.6,4-4,1.07-1,2.03-2.07,2.9-3.2,.27-.27,.53-.6,.8-1,.07-.27,.3-.4,.7-.4,.2,0,.33,.03,.4,.1,.27,.07,.4,.33,.4,.8-.13,.47-.23,.92-.3,1.35-.07,.43-.13,.92-.2,1.45-.07,.54-.12,1.04-.15,1.5-.03,.47-.05,.97-.05,1.5,0,.47,.02,.9,.05,1.3,.03,.4,.08,.8,.15,1.2,.07,.87,.27,1.72,.6,2.55,.33,.83,.83,1.55,1.5,2.15,.6,.53,1.25,.88,1.95,1.05,.7,.17,1.42,.25,2.15,.25,1.13,0,2.3-.17,3.5-.5,1.8-.6,3.5-1.4,5.1-2.4,.8-.47,1.6-.97,2.4-1.5,.8-.53,1.57-1.07,2.3-1.6,1.67-1.13,3.2-2.27,4.6-3.4l3.3-2.7c.2-.13,.37-.25,.5-.35,.13-.1,.33-.15,.6-.15Zm-35.5-11.1h-.3c-.33-.13-.5-.4-.5-.8,0-.27,.03-.43,.1-.5,.13-.2,.28-.37,.45-.5,.17-.13,.32-.27,.45-.4,1.53-1.2,3-2.47,4.4-3.8,1.4-1.33,2.73-2.67,4-4,.6-.73,1.3-1.1,2.1-1.1h.2c.53,.07,.92,.27,1.15,.6,.23,.33,.35,.7,.35,1.1s-.1,.73-.3,1c-.13,.27-.32,.52-.55,.75-.23,.23-.48,.45-.75,.65-.6,.53-1.23,1.07-1.9,1.6-.27,.27-.58,.5-.95,.7-.37,.2-.75,.37-1.15,.5-.27,0-.47,.03-.6,.1-.2,.07-.43,.23-.7,.5-.27,.2-.53,.42-.8,.65-.27,.23-.57,.48-.9,.75-.87,.67-1.63,1.2-2.3,1.6-.53,.4-1.03,.6-1.5,.6Z"></path><path class="cls-1" d="M741.78,76.3c.13,.27,.2,.43,.2,.5,0,.47-.27,.77-.8,.9-.8,.33-1.6,.67-2.4,1-.8,.33-1.57,.63-2.3,.9-.93,.4-1.85,.82-2.75,1.25-.9,.43-1.82,.88-2.75,1.35-.93,.4-1.83,.85-2.7,1.35-.87,.5-1.77,1.02-2.7,1.55,.13,.2,.22,.42,.25,.65,.03,.23,.08,.48,.15,.75,.07,.27,.12,.55,.15,.85,.03,.3,.05,.58,.05,.85,0,.67-.07,1.3-.2,1.9-.13,.6-.27,1.2-.4,1.8-.13,.53-.32,1.05-.55,1.55-.23,.5-.48,1.02-.75,1.55-.73,1.47-1.67,2.9-2.8,4.3-1.13,1.4-2.47,2.5-4,3.3-.47,.27-1.02,.48-1.65,.65-.63,.17-1.25,.25-1.85,.25-1.07,0-2-.3-2.8-.9-.87-.67-1.3-1.63-1.3-2.9,0-.54,.1-1.1,.3-1.7,.47-1.27,1.18-2.42,2.15-3.45,.97-1.03,1.92-2.02,2.85-2.95,.73-.73,1.5-1.43,2.3-2.1,.8-.67,1.6-1.33,2.4-2,.4-.33,.8-.63,1.2-.9,.4-.27,.77-.53,1.1-.8-.2-.73-.57-1.37-1.1-1.9-.33-.4-.7-.78-1.1-1.15-.4-.37-.77-.78-1.1-1.25-.33-.47-.58-.93-.75-1.4-.17-.47-.25-.97-.25-1.5,0-.13-.02-.23-.05-.3-.03-.07-.05-.13-.05-.2s.02-.13,.05-.2c.03-.07,.05-.13,.05-.2,.07-1.27,.43-2.43,1.1-3.5,.27-.53,.58-1,.95-1.4,.37-.4,.75-.8,1.15-1.2,.87-.87,1.73-1.6,2.6-2.2,.47-.27,1-.53,1.6-.8,.6-.27,1.23-.4,1.9-.4h.65c.23,0,.45,.07,.65,.2,.4,.2,.75,.47,1.05,.8,.3,.33,.45,.73,.45,1.2s-.15,.87-.45,1.2c-.3,.33-.62,.63-.95,.9-.4,.33-.83,.63-1.3,.9-.47,.27-.93,.54-1.4,.8-.47,.27-.93,.52-1.4,.75-.47,.23-.93,.45-1.4,.65-.2,.13-.42,.27-.65,.4-.23,.13-.45,.23-.65,.3l-1.2,.5c-.07,.27-.1,.6-.1,1,0,.73,.2,1.4,.6,2,.27,.27,.58,.55,.95,.85,.37,.3,.78,.62,1.25,.95,.73,.73,1.33,1.47,1.8,2.2,.87-.53,1.72-1.07,2.55-1.6,.83-.53,1.68-1.03,2.55-1.5,1.13-.6,2.27-1.17,3.4-1.7,1.13-.53,2.32-1.07,3.55-1.6,1.23-.53,2.45-1,3.65-1.4h.2c.33,0,.6,.1,.8,.3Zm-19.3,11.9v-1.1c-.33,.27-.63,.5-.9,.7-.27,.2-.57,.43-.9,.7-.8,.6-1.58,1.25-2.35,1.95-.77,.7-1.48,1.42-2.15,2.15-.27,.33-.57,.7-.9,1.1-.33,.4-.63,.8-.9,1.2-.33,.6-.65,1.22-.95,1.85-.3,.63-.52,1.28-.65,1.95,0,.53,.03,.83,.1,.9,.07,.13,.23,.2,.5,.2h.3c.2,0,.5-.07,.9-.2,.6-.13,1.15-.4,1.65-.8s.95-.8,1.35-1.2c.93-.93,1.78-2,2.55-3.2,.77-1.2,1.38-2.43,1.85-3.7,.13-.4,.25-.8,.35-1.2,.1-.4,.15-.83,.15-1.3Z"></path><path class="cls-1" d="M851.98,42.3c.07,.07,.1,.17,.1,.3,0,.2-.03,.33-.1,.4-.33,1-1.1,1.5-2.3,1.5-.73,0-1.3-.3-1.7-.9-.2-.27-.6-.47-1.2-.6-.73-.2-1.48-.35-2.25-.45-.77-.1-1.52-.22-2.25-.35-3.47-.47-7-.77-10.6-.9-.87-.07-1.77-.1-2.7-.1h-5.3c-.87,0-1.77,.03-2.7,.1-.93,0-1.88,.02-2.85,.05-.97,.03-1.92,.08-2.85,.15-.07,.13-.13,.25-.2,.35-.07,.1-.13,.22-.2,.35l-2.5,4.8c-.47,.8-.9,1.62-1.3,2.45-.4,.83-.83,1.65-1.3,2.45-.8,1.6-1.62,3.2-2.45,4.8-.83,1.6-1.65,3.23-2.45,4.9-1.67,3.27-3.23,6.5-4.7,9.7-1.53,3.27-3.05,6.57-4.55,9.9-1.5,3.33-2.92,6.67-4.25,10-.67,1.67-1.32,3.35-1.95,5.05-.63,1.7-1.22,3.38-1.75,5.05-.27,.8-.48,1.62-.65,2.45-.17,.83-.32,1.68-.45,2.55-.07,.27-.12,.53-.15,.8-.03,.27-.05,.53-.05,.8,0,.2,.02,.4,.05,.6,.03,.2,.05,.4,.05,.6v.8c0,.27-.02,.53-.05,.8-.03,.27-.12,.53-.25,.8-.2,.27-.47,.4-.8,.4-.27,0-.6-.07-1-.2-.27-.27-.5-.6-.7-1s-.37-.8-.5-1.2c-.07-.27-.1-.5-.1-.7v-.7c0-.4,.02-.8,.05-1.2,.03-.4,.08-.77,.15-1.1,.33-1.87,.77-3.7,1.3-5.5,.53-1.8,1.17-3.53,1.9-5.2,1-2.53,2.07-5.05,3.2-7.55,1.13-2.5,2.3-4.98,3.5-7.45,.8-1.67,1.6-3.32,2.4-4.95,.8-1.63,1.63-3.25,2.5-4.85,.8-1.6,1.62-3.2,2.45-4.8,.83-1.6,1.68-3.2,2.55-4.8l5.2-9.6,5.1-9.5c-.47,.07-.93,.1-1.4,.1s-.93,.03-1.4,.1c-.67,.87-1.3,1.72-1.9,2.55-.6,.83-1.23,1.68-1.9,2.55-1.67,2.2-3.32,4.4-4.95,6.6-1.63,2.2-3.32,4.33-5.05,6.4-1.13,1.33-2.28,2.68-3.45,4.05-1.17,1.37-2.35,2.68-3.55,3.95-3.27,3.4-6.6,6.73-10,10-.87,.8-1.72,1.62-2.55,2.45-.83,.83-1.68,1.65-2.55,2.45-.87,.8-1.73,1.6-2.6,2.4-.87,.8-1.77,1.57-2.7,2.3-.53,.4-1.1,.78-1.7,1.15-.6,.37-1.2,.55-1.8,.55h-.2c-1-.13-1.7-.57-2.1-1.3-.27-.46-.4-1.03-.4-1.7,0-.87,.17-1.73,.5-2.6,.33-.87,.67-1.63,1-2.3,.47-1.13,.98-2.22,1.55-3.25,.57-1.03,1.15-2.08,1.75-3.15,.13-.27,.28-.5,.45-.7,.17-.2,.32-.43,.45-.7,.07-.2,.17-.38,.3-.55,.13-.17,.33-.28,.6-.35,.13-.07,.3-.1,.5-.1h.6c.53,.13,.97,.4,1.3,.8,.13,.2,.27,.43,.4,.7v.1c0,.47-.17,.97-.5,1.5-.33,.53-.63,.97-.9,1.3-.67,1-1.32,1.97-1.95,2.9-.63,.93-1.25,1.9-1.85,2.9-.13,.27-.28,.5-.45,.7-.17,.2-.32,.43-.45,.7-.07,.07-.23,.42-.5,1.05-.27,.63-.4,1.12-.4,1.45s.13,.5,.4,.5c.2,0,.42-.05,.65-.15,.23-.1,.42-.18,.55-.25,.67-.33,1.33-.73,2-1.2,.67-.47,1.33-.93,2-1.4,2.27-1.8,4.47-3.73,6.6-5.8,2.13-2.07,4.2-4.13,6.2-6.2l4.8-5.1c1.2-1.33,2.37-2.67,3.5-4,1.13-1.33,2.27-2.67,3.4-4,.53-.67,1.1-1.37,1.7-2.1,.6-.73,1.17-1.43,1.7-2.1,1.13-1.4,2.27-2.82,3.4-4.25,1.13-1.43,2.23-2.88,3.3-4.35,.53-.67,1.07-1.37,1.6-2.1,.53-.73,1.07-1.47,1.6-2.2-3.33,.2-6.67,.47-10,.8-3.33,.33-6.67,.7-10,1.1-1.8,.2-3.58,.42-5.35,.65-1.77,.23-3.52,.48-5.25,.75-.8,.13-1.62,.27-2.45,.4-.83,.13-1.62,.27-2.35,.4,.07,.07,.1,.2,.1,.4,0,.54-.2,.83-.6,.9-.53,.13-.97,.2-1.3,.2-.4,0-.87-.07-1.4-.2-.67-.27-1-.77-1-1.5,0-.6,.27-1.07,.8-1.4,.33-.2,.72-.35,1.15-.45,.43-.1,.88-.22,1.35-.35,.87-.13,1.77-.27,2.7-.4,.93-.13,1.83-.27,2.7-.4,1.73-.2,3.5-.38,5.3-.55,1.8-.17,3.6-.32,5.4-.45,1.8-.13,3.58-.27,5.35-.4,1.77-.13,3.55-.23,5.35-.3l10.4-.5c.4-.53,.78-1.07,1.15-1.6,.37-.53,.75-1.07,1.15-1.6,1.07-1.46,2.1-2.96,3.1-4.5,1-1.53,1.97-3.07,2.9-4.6,.93-1.53,1.87-3.08,2.8-4.65,.93-1.57,1.83-3.12,2.7-4.65,.8-1.33,1.6-2.7,2.4-4.1,.8-1.4,1.63-2.73,2.5-4,.27-.4,.5-.63,.7-.7,.07,0,.13-.02,.2-.05,.07-.03,.13-.05,.2-.05,.47,0,.97,.2,1.5,.6,.27,.27,.4,.63,.4,1.1,0,.2-.07,.5-.2,.9-.4,1.07-.85,2.08-1.35,3.05-.5,.97-1.02,1.92-1.55,2.85l-2.7,4.8c-.93,1.53-1.87,3.08-2.8,4.65-.93,1.57-1.87,3.12-2.8,4.65-.53,.8-1,1.6-1.4,2.4-.4,.8-.83,1.57-1.3,2.3-.27,.54-.52,1.04-.75,1.5-.23,.47-.52,.93-.85,1.4l5-.2,5.4-.3c.87-.07,1.77-.12,2.7-.15,.93-.03,1.83-.05,2.7-.05,.73,0,1.48-.02,2.25-.05,.77-.03,1.52-.05,2.25-.05,1.07,0,2.12,.02,3.15,.05,1.03,.03,2.08,.08,3.15,.15,.87,.07,1.77,.13,2.7,.2,.93,.07,1.87,.17,2.8,.3,.53,.07,1.12,.15,1.75,.25,.63,.1,1.18,.32,1.65,.65,.4,.4,.6,.8,.6,1.2Zm-74.6,17.8v.3c0,.13-.02,.27-.05,.4-.03,.13-.08,.27-.15,.4-.33,.67-.8,1.3-1.4,1.9-.6,.6-1.23,1.13-1.9,1.6-.13,.13-.33,.3-.6,.5-.27,.2-.53,.3-.8,.3-.33,0-.67-.2-1-.6-.33-.4-.5-.8-.5-1.2v-.2c.07-.2,.22-.42,.45-.65s.38-.42,.45-.55c.4-.4,.83-.78,1.3-1.15,.47-.37,.87-.75,1.2-1.15,.27-.27,.53-.52,.8-.75,.27-.23,.57-.35,.9-.35,.2,0,.43,.07,.7,.2,.4,.27,.6,.6,.6,1Zm36.7-19.7l2-3.7c.47-.8,.9-1.6,1.3-2.4s.8-1.6,1.2-2.4c.27-.53,.53-1.07,.8-1.6,.27-.53,.53-1.07,.8-1.6-.13,.07-.23,.17-.3,.3-.07,.13-.13,.27-.2,.4-1.13,1.47-2.22,2.93-3.25,4.4-1.03,1.47-2.08,2.93-3.15,4.4-.33,.4-.63,.78-.9,1.15-.27,.37-.57,.75-.9,1.15l2.6-.1Z"></path><path class="cls-1" d="M865.18,35.8v.2c0,.4-.15,.7-.45,.9-.3,.2-.65,.37-1.05,.5-.33,.07-.67,.12-1,.15-.33,.03-.67,.05-1,.05-.07,0-.18,.02-.35,.05-.17,.04-.32,.05-.45,.05-.2,0-.38-.02-.55-.05-.17-.03-.35-.08-.55-.15-.2-.07-.42-.2-.65-.4-.23-.2-.38-.43-.45-.7-1.13-.13-2.25-.21-3.35-.25-1.1-.03-2.22-.08-3.35-.15-1.6-.07-3.22-.12-4.85-.15-1.63-.03-3.25-.05-4.85-.05-1.2,0-2.38,.02-3.55,.05-1.17,.03-2.32,.05-3.45,.05-.33,.47-.63,.97-.9,1.5-.27,.54-.57,1.07-.9,1.6l-2.9,5.1-1.5,2.6c-.27,.4-.53,.82-.8,1.25-.27,.43-.57,.82-.9,1.15-.2,.27-.47,.4-.8,.4s-.6-.1-.8-.3c-.2-.2-.3-.43-.3-.7v-.2c-.07,.07-.12,.13-.15,.2-.03,.07-.08,.17-.15,.3-1.87,3.47-3.73,6.95-5.6,10.45-1.87,3.5-3.67,7.02-5.4,10.55-.47,.87-.92,1.75-1.35,2.65-.43,.9-.85,1.78-1.25,2.65-.8,1.8-1.58,3.6-2.35,5.4s-1.48,3.63-2.15,5.5c-.33,.93-.65,1.87-.95,2.8-.3,.93-.55,1.87-.75,2.8-.13,.53-.23,1.1-.3,1.7-.07,.6-.1,1.2-.1,1.8,0,.93,.13,1.7,.4,2.3,.27,.47,.67,.7,1.2,.7,.33,0,.68-.05,1.05-.15,.37-.1,.68-.22,.95-.35,.93-.27,1.82-.63,2.65-1.1,.83-.47,1.65-.97,2.45-1.5,3.27-2,6.4-4.33,9.4-7,.73-.6,1.47-1.23,2.2-1.9,.73-.67,1.47-1.33,2.2-2,.73-.67,1.47-1.35,2.2-2.05,.73-.7,1.43-1.38,2.1-2.05,.27-.27,.53-.52,.8-.75,.27-.23,.53-.48,.8-.75,.4-.47,.82-.93,1.25-1.4,.43-.47,.92-.83,1.45-1.1h.3c.2,0,.43,.07,.7,.2,.13,.13,.2,.3,.2,.5,0,.07-.07,.23-.2,.5-.27,.4-.57,.78-.9,1.15-.33,.37-.67,.72-1,1.05-.33,.33-.68,.68-1.05,1.05-.37,.37-.72,.68-1.05,.95-1.4,1.47-2.87,2.83-4.4,4.1-2.2,1.93-4.45,3.87-6.75,5.8-2.3,1.93-4.68,3.73-7.15,5.4-.73,.53-1.5,1.05-2.3,1.55-.8,.5-1.63,.92-2.5,1.25-.6,.27-1.2,.48-1.8,.65-.6,.17-1.2,.25-1.8,.25h-.4c-1.6-.2-2.57-1.17-2.9-2.9-.07-.27-.1-.53-.1-.8v-.8c0-.8,.08-1.58,.25-2.35,.17-.77,.35-1.52,.55-2.25,.27-1,.58-1.98,.95-2.95,.37-.97,.72-1.92,1.05-2.85,.67-1.73,1.43-3.57,2.3-5.5,.73-1.8,1.52-3.6,2.35-5.4,.83-1.8,1.68-3.6,2.55-5.4,.93-1.8,1.83-3.58,2.7-5.35,.87-1.77,1.77-3.52,2.7-5.25,.93-1.73,1.87-3.47,2.8-5.2,.93-1.73,1.87-3.46,2.8-5.2,1.13-2.07,2.28-4.1,3.45-6.1,1.17-2,2.32-4,3.45-6-.27,0-.88,.02-1.85,.05-.97,.04-1.78,.08-2.45,.15-1.47,.07-2.9,.18-4.3,.35-1.4,.17-2.8,.32-4.2,.45-1.4,.13-2.8,.3-4.2,.5l-4.2,.6c-.73,.13-1.63,.3-2.7,.5-1.07,.2-1.63,.3-1.7,.3,0,.07,.02,.12,.05,.15,.03,.04,.05,.08,.05,.15,0,.47-.27,.7-.8,.7h-.85c-.3,0-.58-.07-.85-.2-.47-.13-.7-.4-.7-.8v-.2c0-.4,.23-.7,.7-.9,.2-.07,.4-.13,.6-.2,.2-.07,.4-.13,.6-.2,.2-.07,.38-.12,.55-.15,.17-.03,.35-.08,.55-.15,.67-.13,1.37-.27,2.1-.4,.73-.13,1.43-.23,2.1-.3,1.47-.2,2.9-.4,4.3-.6,1.4-.2,2.8-.37,4.2-.5,1.47-.13,2.9-.27,4.3-.4,1.4-.13,2.83-.23,4.3-.3l2.1-.1c.33,0,.92-.03,1.75-.1,.83-.07,1.32-.1,1.45-.1,.67-1.13,1.33-2.27,2-3.4,.67-1.13,1.33-2.27,2-3.4,1.53-2.67,3.12-5.3,4.75-7.9,1.63-2.6,3.18-5.27,4.65-8,.47-.8,.92-1.62,1.35-2.45,.43-.83,.95-1.58,1.55-2.25,.33-.4,.7-.6,1.1-.6,.27,0,.53,.1,.8,.3,.27,.27,.4,.53,.4,.8s-.03,.47-.1,.6c-.33,.87-.72,1.7-1.15,2.5-.43,.8-.85,1.6-1.25,2.4-.47,.93-.93,1.82-1.4,2.65-.47,.83-.93,1.68-1.4,2.55-.93,1.73-1.88,3.47-2.85,5.2-.97,1.73-1.95,3.47-2.95,5.2-.93,1.8-1.97,3.67-3.1,5.6,1.27-.07,2.5-.12,3.7-.15,1.2-.03,2.4-.08,3.6-.15h12.9c.67,.07,1.37,.1,2.1,.1s1.47,.03,2.2,.1c.33,0,.68,.02,1.05,.05,.37,.04,.75,.08,1.15,.15,.47,.07,.93,.2,1.4,.4,.47,.2,.77,.57,.9,1.1Z"></path><path class="cls-1" d="M902.28,76.3h.1c.27,.07,.4,.3,.4,.7v.3c-.13,.47-.33,.83-.6,1.1-.53,.54-1.1,1.08-1.7,1.65-.6,.57-1.17,1.12-1.7,1.65l-2.4,2.1c-.4,.33-.8,.68-1.2,1.05-.4,.37-.8,.68-1.2,.95-1.67,1.33-3.4,2.6-5.2,3.8-1.8,1.2-3.67,2.23-5.6,3.1-.93,.46-1.92,.88-2.95,1.25-1.03,.37-2.12,.62-3.25,.75-.33,.07-.65,.12-.95,.15-.3,.03-.62,.05-.95,.05-.27,0-.5-.02-.7-.05-.2-.03-.43-.05-.7-.05-2.33-.2-4.33-1.1-6-2.7-.47-.33-.85-.72-1.15-1.15-.3-.43-.62-.88-.95-1.35-.27-.33-.48-.68-.65-1.05-.17-.37-.35-.72-.55-1.05-.47,.6-.92,1.22-1.35,1.85-.43,.63-.88,1.28-1.35,1.95-.53,.87-1.07,1.72-1.6,2.55-.53,.83-1.03,1.68-1.5,2.55-.27,.4-.5,.82-.7,1.25s-.43,.85-.7,1.25c-.33,.4-.7,.6-1.1,.6-.27,0-.47-.03-.6-.1-.47-.27-.7-.63-.7-1.1,0-.07,.02-.13,.05-.2,.03-.07,.05-.13,.05-.2,.27-.8,.53-1.62,.8-2.45,.27-.83,.53-1.65,.8-2.45l1.8-4.8c.6-1.53,1.22-3.1,1.85-4.7,.63-1.6,1.28-3.17,1.95-4.7,.07-.13,.12-.27,.15-.4,.03-.13,.08-.27,.15-.4l-.2-.2c-.27-.27-.4-.5-.4-.7v-.2c0-.2,.1-.4,.3-.6l1.8-3.3c.47-.73,.9-1.48,1.3-2.25,.4-.77,.83-1.48,1.3-2.15l.2-.3c.6-1.33,1.2-2.68,1.8-4.05,.6-1.37,1.23-2.68,1.9-3.95,1.47-3.07,2.97-6.12,4.5-9.15,1.53-3.03,3.07-6.05,4.6-9.05,1.53-2.87,3.17-5.83,4.9-8.9l2.4-4.5c.4-.73,.8-1.47,1.2-2.2,.4-.73,.8-1.47,1.2-2.2,.53-1,1.08-2,1.65-3,.57-1,1.18-1.97,1.85-2.9,.33-.53,.72-1.1,1.15-1.7,.43-.6,.92-1.03,1.45-1.3,.13-.07,.27-.12,.4-.15,.13-.03,.27-.05,.4-.05,.8,0,1.27,.37,1.4,1.1v.3c0,.73-.17,1.43-.5,2.1-.47,1.2-1,2.38-1.6,3.55-.6,1.17-1.23,2.28-1.9,3.35-.8,1.47-1.62,2.93-2.45,4.4-.83,1.47-1.68,2.93-2.55,4.4-.87,1.47-1.7,2.93-2.5,4.4-.8,1.47-1.63,2.97-2.5,4.5-1.67,2.93-3.3,5.88-4.9,8.85-1.6,2.97-3.2,5.95-4.8,8.95-.67,1.13-1.3,2.23-1.9,3.3-.6,1.07-1.2,2.17-1.8,3.3l-1.3,2.2c-.4,.73-.8,1.47-1.2,2.2-.4,.73-.83,1.47-1.3,2.2l-1.2,2.2c0,.07-.03,.1-.1,.1-.07,.2-.17,.42-.3,.65-.13,.23-.27,.45-.4,.65-.07,.07-.12,.12-.15,.15-.03,.03-.08,.08-.15,.15-.07,.2-.13,.4-.2,.6-.07,.2-.13,.4-.2,.6-.6,1.47-1.17,2.98-1.7,4.55s-1.07,3.12-1.6,4.65c.47-.67,.95-1.35,1.45-2.05s1.02-1.38,1.55-2.05c-.13-.47-.2-.73-.2-.8v-.2c0-.33,.1-.53,.3-.6,.4-.27,.8-.52,1.2-.75,.4-.23,.8-.45,1.2-.65,.87-.87,1.75-1.75,2.65-2.65,.9-.9,1.82-1.75,2.75-2.55,2.47-2.07,5-3.77,7.6-5.1,.73-.33,1.45-.65,2.15-.95,.7-.3,1.45-.55,2.25-.75,.4-.07,.82-.15,1.25-.25,.43-.1,.88-.15,1.35-.15s.83,.03,1.1,.1c1,.2,1.5,.8,1.5,1.8,0,.53-.13,.97-.4,1.3-.27,.33-.55,.62-.85,.85-.3,.23-.62,.45-.95,.65-.93,.6-1.92,1.15-2.95,1.65-1.03,.5-2.05,1.02-3.05,1.55-1.33,.6-2.68,1.2-4.05,1.8-1.37,.6-2.72,1.17-4.05,1.7-.47,.2-.9,.4-1.3,.6s-.83,.37-1.3,.5c-.47,.47-.92,.93-1.35,1.4-.43,.47-.85,.93-1.25,1.4-.27,.33-.52,.65-.75,.95-.23,.3-.48,.62-.75,.95,.13,.47,.32,.92,.55,1.35,.23,.43,.48,.85,.75,1.25,.53,.8,1.17,1.55,1.9,2.25,.73,.7,1.53,1.22,2.4,1.55,1,.46,2.17,.7,3.5,.7,.4,0,.78-.02,1.15-.05,.37-.03,.75-.08,1.15-.15,2-.33,3.92-1,5.75-2,1.83-1,3.58-2.07,5.25-3.2,.87-.53,1.7-1.12,2.5-1.75,.8-.63,1.6-1.28,2.4-1.95,.8-.73,1.6-1.43,2.4-2.1,.8-.67,1.57-1.33,2.3-2,.53-.53,1.1-1.07,1.7-1.6,.6-.53,1.17-1.07,1.7-1.6,.47-.47,.97-.7,1.5-.7Zm-21.8-33.7c-1.4,2.67-2.75,5.33-4.05,8-1.3,2.67-2.62,5.33-3.95,8,1.67-2.67,3.3-5.33,4.9-8,1.6-2.67,3.17-5.37,4.7-8.1,.93-1.53,1.77-3,2.5-4.4,.4-.73,.8-1.48,1.2-2.25,.4-.77,.77-1.52,1.1-2.25l.6-1.1,.5-1.2c.2-.4,.4-.78,.6-1.15,.2-.37,.37-.75,.5-1.15,.2-.47,.4-.9,.6-1.3,.2-.4,.4-.83,.6-1.3-.13,.13-.27,.3-.4,.5-.13,.2-.27,.37-.4,.5l-1.5,2.1c-.47,.73-.92,1.45-1.35,2.15-.43,.7-.88,1.42-1.35,2.15-.8,1.47-1.6,2.93-2.4,4.4-.8,1.47-1.6,2.93-2.4,4.4Zm-.5,31c-.93,.53-1.85,1.08-2.75,1.65-.9,.57-1.78,1.18-2.65,1.85,.73-.33,1.48-.7,2.25-1.1,.77-.4,1.52-.77,2.25-1.1l3.9-2.1c.33-.13,.63-.3,.9-.5,.27-.2,.53-.37,.8-.5-.13,.07-.27,.1-.4,.1s-.27,.04-.4,.1c-.67,.2-1.32,.43-1.95,.7-.63,.27-1.28,.57-1.95,.9Z"></path><path class="cls-1" d="M928.98,76.8v.3c0,.33-.13,.63-.4,.9-.27,.27-.53,.53-.8,.8-.8,.8-1.63,1.55-2.5,2.25-.87,.7-1.77,1.38-2.7,2.05-1.27,.87-2.55,1.7-3.85,2.5s-2.62,1.53-3.95,2.2c-1.47,.73-2.9,1.33-4.3,1.8-.73,.2-1.47,.37-2.2,.5-.73,.13-1.43,.2-2.1,.2-1.27,0-2.37-.23-3.3-.7-1.2-.67-2.08-1.6-2.65-2.8-.57-1.2-.85-2.43-.85-3.7v-.9c0-.27,.02-.52,.05-.75,.03-.23,.08-.48,.15-.75,.4-2.27,1.27-4.32,2.6-6.15,1.33-1.83,2.9-3.38,4.7-4.65,.67-.46,1.35-.9,2.05-1.3,.7-.4,1.42-.77,2.15-1.1,.4-.07,.82-.18,1.25-.35,.43-.17,.85-.25,1.25-.25,.13,0,.23,.02,.3,.05,.07,.03,.17,.05,.3,.05,.4,.13,.77,.32,1.1,.55,.33,.23,.57,.58,.7,1.05v.4c0,.33-.08,.68-.25,1.05-.17,.37-.35,.68-.55,.95-.53,.53-1.08,1.03-1.65,1.5-.57,.47-1.18,.9-1.85,1.3-1.2,.87-2.53,1.6-4,2.2-.47,.2-.93,.4-1.4,.6-.47,.2-.97,.37-1.5,.5-.13,.27-.27,.55-.4,.85-.13,.3-.27,.58-.4,.85-.2,.6-.38,1.22-.55,1.85-.17,.63-.28,1.25-.35,1.85,0,.73,.1,1.5,.3,2.3,.2,.8,.6,1.47,1.2,2,.53,.4,1.1,.68,1.7,.85,.6,.17,1.23,.25,1.9,.25,1.13,0,2.1-.13,2.9-.4,1.93-.53,3.75-1.33,5.45-2.4,1.7-1.07,3.35-2.2,4.95-3.4l5.1-4.2c.2-.2,.4-.4,.6-.6,.2-.2,.43-.37,.7-.5,.13-.07,.3-.1,.5-.1,.27,0,.47,.17,.6,.5Zm-20.1-4.3c-.33,.2-.73,.53-1.2,1-.47,.47-.8,.8-1,1,.47-.2,.93-.47,1.4-.8,.4-.27,.8-.53,1.2-.8,.4-.27,.8-.53,1.2-.8,.27-.27,.53-.5,.8-.7,.27-.2,.53-.43,.8-.7,.07-.07,.17-.17,.3-.3,.13-.13,.23-.27,.3-.4-.33,.13-.7,.32-1.1,.55-.4,.23-.77,.45-1.1,.65-.27,.2-.53,.4-.8,.6-.27,.2-.53,.43-.8,.7Z"></path><path class="cls-1" d="M967.08,76.3c.27,0,.4,.17,.4,.5v.3c-.13,.47-.5,.93-1.1,1.4l-1.4,1.2c-1.47,1.27-2.88,2.53-4.25,3.8-1.37,1.27-2.75,2.53-4.15,3.8-1.8,1.67-3.6,3.38-5.4,5.15-1.8,1.77-3.57,3.58-5.3,5.45-.4,.4-.78,.8-1.15,1.2-.37,.4-.75,.83-1.15,1.3-.07,.53-.12,1.1-.15,1.7-.03,.6-.08,1.17-.15,1.7-.13,1.33-.32,2.62-.55,3.85-.23,1.23-.52,2.48-.85,3.75-1.07,4.87-2.53,9.7-4.4,14.5-.47,1.2-.93,2.38-1.4,3.55-.47,1.17-.97,2.32-1.5,3.45-1.07,2.33-2.2,4.6-3.4,6.8-1.2,2.2-2.53,4.37-4,6.5-1.4,2.13-3,4.13-4.8,6-.87,.93-1.82,1.82-2.85,2.65-1.03,.83-2.12,1.52-3.25,2.05-1.13,.67-2.3,1-3.5,1-.4,0-.7-.03-.9-.1-.93-.2-1.67-.67-2.2-1.4-.67-.93-1-2.07-1-3.4,0-1.13,.18-2.3,.55-3.5,.37-1.2,.72-2.27,1.05-3.2,.73-1.73,1.53-3.45,2.4-5.15,.87-1.7,1.77-3.38,2.7-5.05,1.87-3.27,3.87-6.47,6-9.6,.67-1.07,1.37-2.12,2.1-3.15,.73-1.03,1.47-2.08,2.2-3.15l4.5-6c.73-1,1.5-2,2.3-3,.8-1,1.6-2,2.4-3,1-1.27,2.03-2.52,3.1-3.75,1.07-1.23,2.13-2.45,3.2-3.65v-.8c-.07-.93-.15-1.83-.25-2.7-.1-.87-.28-1.73-.55-2.6-.2-.67-.5-1.3-.9-1.9s-.97-1-1.7-1.2c-.27-.13-.7-.2-1.3-.2h-.75c-.23,0-.52,.07-.85,.2-.4,.13-.78,.28-1.15,.45-.37,.17-.75,.32-1.15,.45h-.4c-.6,0-1.03-.17-1.3-.5-.27-.33-.4-.63-.4-.9v-.2c0-.53,.23-1.1,.7-1.7,.33-.53,.7-1.07,1.1-1.6,.4-.53,.8-1.03,1.2-1.5,.4-.47,.8-.95,1.2-1.45s.8-.98,1.2-1.45c.87-.93,1.7-1.88,2.5-2.85,.8-.97,1.63-1.92,2.5-2.85l2.5-2.9c.6-.67,1.2-1.37,1.8-2.1,.6-.73,1.17-1.47,1.7-2.2,.33-.33,.62-.7,.85-1.1,.23-.4,.48-.77,.75-1.1v-.1c-1.27,.27-2.53,.73-3.8,1.4-.6,.27-1.18,.54-1.75,.8-.57,.27-1.12,.53-1.65,.8-2.07,1.13-4.23,2.37-6.5,3.7-.53,.33-1.07,.67-1.6,1-.53,.33-1.07,.63-1.6,.9-.33,.27-.67,.5-1,.7-.33,.2-.7,.4-1.1,.6-.33,.2-.67,.3-1,.3-.27,0-.5-.1-.7-.3-.27-.2-.4-.43-.4-.7,0-.47,.2-.83,.6-1.1,.33-.33,.72-.62,1.15-.85,.43-.23,.85-.45,1.25-.65,1.07-.8,2.13-1.47,3.2-2,1.13-.6,2.27-1.2,3.4-1.8,1.13-.6,2.27-1.17,3.4-1.7,.6-.27,1.18-.52,1.75-.75,.57-.23,1.15-.48,1.75-.75,1.4-.67,2.73-1.13,4-1.4,.2-.07,.57-.1,1.1-.1,.87,0,1.43,.3,1.7,.9v.4c0,.27-.07,.6-.2,1-.07,.27-.2,.52-.4,.75-.2,.23-.37,.48-.5,.75-.73,1.13-1.47,2.17-2.2,3.1-.73,1-1.48,2.02-2.25,3.05-.77,1.03-1.55,2.05-2.35,3.05l-4.6,5.9c-.4,.6-.82,1.18-1.25,1.75-.43,.57-.88,1.12-1.35,1.65h.8c.93,0,1.73,.1,2.4,.3,.87,.33,1.57,.77,2.1,1.3,.6,.6,1.07,1.23,1.4,1.9,.47,.93,.8,1.93,1,3,.2,1.07,.3,2.1,.3,3.1,1.87-2.07,3.78-4.12,5.75-6.15,1.97-2.03,3.95-4.02,5.95-5.95,1.33-1.27,2.72-2.55,4.15-3.85,1.43-1.3,2.85-2.55,4.25-3.75,.33-.33,.67-.63,1-.9,.33-.27,.67-.5,1-.7,.4-.27,.87-.4,1.4-.4Zm-26,27.3v-.6c-.87,1-1.73,2-2.6,3-.87,1-1.73,2-2.6,3-.87,.93-1.7,1.9-2.5,2.9-.8,1-1.57,1.97-2.3,2.9-.8,1-1.58,2-2.35,3-.77,1-1.52,2-2.25,3-.73,1.07-1.47,2.1-2.2,3.1-.73,1-1.43,2.03-2.1,3.1-2.87,4.27-5.37,8.6-7.5,13-.8,1.73-1.55,3.5-2.25,5.3-.7,1.8-1.22,3.67-1.55,5.6,0,.33-.02,.67-.05,1-.03,.33-.05,.63-.05,.9,0,.47,.03,.88,.1,1.25,.07,.37,.23,.72,.5,1.05,.27,.4,.73,.6,1.4,.6,.33,0,.68-.05,1.05-.15,.37-.1,.72-.22,1.05-.35,1.27-.54,2.4-1.2,3.4-2,1.53-1.07,2.93-2.29,4.2-3.65,1.27-1.37,2.43-2.78,3.5-4.25,1.47-2,2.83-4.08,4.1-6.25,1.27-2.17,2.4-4.38,3.4-6.65,1.07-2.27,2.03-4.57,2.9-6.9,.87-2.33,1.6-4.7,2.2-7.1,.2-.67,.37-1.3,.5-1.9,.13-.6,.27-1.2,.4-1.8,.13-.6,.25-1.2,.35-1.8,.1-.6,.22-1.23,.35-1.9,.4-2.4,.7-4.87,.9-7.4Z"></path><path class="cls-1" d="M1019.38,6.7c.07,.13,.1,.33,.1,.6,0,.33-.03,.57-.1,.7-.13,1.07-.38,2.12-.75,3.15-.37,1.03-.78,2.02-1.25,2.95-.87,1.93-1.8,3.82-2.8,5.65-1,1.83-1.97,3.68-2.9,5.55l-1.9,3.7c-1.27,2.53-2.57,5-3.9,7.4-1.33,2.4-2.67,4.8-4,7.2-.73,1.27-1.43,2.5-2.1,3.7-.67,1.2-1.33,2.4-2,3.6-.33,.54-.68,1.1-1.05,1.7-.37,.6-.75,1.2-1.15,1.8l-1.5,2.6c-.27,.53-.5,1.08-.7,1.65-.2,.57-.43,1.12-.7,1.65-2.13,5.13-4.22,10.27-6.25,15.4-2.03,5.13-4.02,10.27-5.95,15.4-.93,2.6-1.87,5.2-2.8,7.8-.93,2.6-1.77,5.23-2.5,7.9-.4,1.33-.78,2.67-1.15,4-.37,1.33-.68,2.67-.95,4-.07,.27-.12,.57-.15,.9-.03,.33-.08,.67-.15,1-.07,.33-.1,.67-.1,1v1.7c.07,.13,.12,.28,.15,.45,.03,.17,.15,.25,.35,.25h.6c.2,0,.37,.03,.5,.1,.2,.2,.3,.4,.3,.6s-.07,.37-.2,.5c-.4,.47-.9,.7-1.5,.7-1,0-1.67-.47-2-1.4-.27-.6-.4-1.33-.4-2.2,0-.33,.02-.65,.05-.95,.03-.3,.08-.62,.15-.95,.07-.33,.13-.68,.2-1.05,.07-.37,.13-.72,.2-1.05,.27-1.4,.58-2.78,.95-4.15,.37-1.37,.75-2.72,1.15-4.05,.4-1.33,.83-2.67,1.3-4,.47-1.33,.93-2.63,1.4-3.9,.47-1.27,.93-2.57,1.4-3.9,.47-1.33,.97-2.63,1.5-3.9,.93-2.6,1.93-5.18,3-7.75,1.07-2.57,2.13-5.12,3.2-7.65,.67-1.73,1.38-3.48,2.15-5.25,.77-1.77,1.52-3.48,2.25-5.15-.8,1.27-1.6,2.5-2.4,3.7-.8,1.2-1.6,2.4-2.4,3.6-1.53,2.33-3.12,4.63-4.75,6.9-1.63,2.27-3.35,4.47-5.15,6.6-.87,1.13-1.77,2.23-2.7,3.3-.93,1.07-1.93,2.07-3,3-.53,.53-1.13,1.03-1.8,1.5-.67,.47-1.33,.83-2,1.1-.6,.27-1.33,.4-2.2,.4-.8,0-1.47-.13-2-.4-.93-.53-1.5-1.3-1.7-2.3-.07-.27-.12-.52-.15-.75-.03-.23-.05-.48-.05-.75,0-1,.17-2,.5-3,.47-1.4,1.05-2.75,1.75-4.05,.7-1.3,1.45-2.55,2.25-3.75,1-1.53,2.1-3.03,3.3-4.5,1.2-1.47,2.57-2.73,4.1-3.8,.67-.47,1.37-.87,2.1-1.2,.73-.33,1.5-.5,2.3-.5,1.67,0,3,.5,4,1.5,.4,.4,.73,.8,1,1.2,.27,.4,.5,.8,.7,1.2,.13,.4,.2,.73,.2,1l2.4-3.3c2.73-3.8,5.33-7.7,7.8-11.7,1.13-2.47,2.27-4.97,3.4-7.5,1.13-2.53,2.23-5.07,3.3-7.6,.6-1.33,1.18-2.62,1.75-3.85,.57-1.23,1.15-2.48,1.75-3.75,.53-1.27,1.1-2.52,1.7-3.75,.6-1.23,1.2-2.48,1.8-3.75,.53-1.27,1.1-2.53,1.7-3.8,.6-1.27,1.17-2.53,1.7-3.8,.53-1.27,1.08-2.53,1.65-3.8,.57-1.27,1.15-2.53,1.75-3.8,.47-.93,.93-1.88,1.4-2.85,.47-.97,.97-1.88,1.5-2.75,.33-.47,.67-1,1-1.6,.33-.6,.73-1.03,1.2-1.3,.33-.2,.63-.3,.9-.3,.73,0,1.2,.4,1.4,1.2Zm-40.7,71.4c.13-.2,.28-.38,.45-.55,.17-.17,.32-.35,.45-.55h-.3c-.27,0-.53-.07-.8-.2-.53-.33-.97-.77-1.3-1.3-.27-.73-.7-1.17-1.3-1.3h-.2c-.33,0-.7,.1-1.1,.3-.4,.2-.77,.4-1.1,.6-.73,.53-1.43,1.15-2.1,1.85-.67,.7-1.3,1.38-1.9,2.05-.67,.73-1.32,1.5-1.95,2.3-.63,.8-1.22,1.63-1.75,2.5-.53,.8-1.05,1.6-1.55,2.4-.5,.8-.92,1.67-1.25,2.6-.13,.33-.27,.68-.4,1.05-.13,.37-.2,.75-.2,1.15,0,.13,.02,.23,.05,.3,.03,.07,.05,.13,.05,.2,0,.2,.13,.3,.4,.3,.13,0,.25,.02,.35,.05,.1,.03,.22,.05,.35,.05s.27-.02,.4-.05c.13-.03,.23-.05,.3-.05,.6-.2,1.17-.47,1.7-.8,.53-.33,1.03-.67,1.5-1,1.13-.87,2.2-1.77,3.2-2.7,1-.93,1.93-1.9,2.8-2.9,.87-1,1.75-2.02,2.65-3.05,.9-1.03,1.75-2.12,2.55-3.25Zm36.6-64.8v-.1l-.2,.4-3,5.4c-.33,.6-.67,1.2-1,1.8-.33,.6-.67,1.2-1,1.8-.33,.6-.67,1.2-1,1.8-.33,.6-.67,1.23-1,1.9-.33,.6-.63,1.2-.9,1.8-.27,.6-.57,1.23-.9,1.9-.6,1.27-1.2,2.52-1.8,3.75-.6,1.23-1.17,2.48-1.7,3.75-.6,1.27-1.18,2.53-1.75,3.8-.57,1.27-1.15,2.53-1.75,3.8-.47,1.13-.97,2.3-1.5,3.5-.53,1.2-1.07,2.4-1.6,3.6,.87-1.47,1.73-2.93,2.6-4.4,.87-1.47,1.73-2.97,2.6-4.5,.67-1.2,1.32-2.4,1.95-3.6,.63-1.2,1.28-2.43,1.95-3.7,1.27-2.4,2.53-4.83,3.8-7.3,.33-.67,.65-1.3,.95-1.9s.58-1.23,.85-1.9c.13-.33,.28-.65,.45-.95,.17-.3,.32-.62,.45-.95,.13-.27,.27-.57,.4-.9,.13-.33,.27-.67,.4-1,.53-1.27,1.02-2.57,1.45-3.9,.43-1.33,.85-2.63,1.25-3.9Z"></path><path class="cls-1" d="M1019.88,76.3c.27,0,.4,.13,.4,.4,0,.2-.13,.4-.4,.6-.27,.2-.47,.33-.6,.4-.53,.33-1.1,.62-1.7,.85-.6,.23-1.2,.48-1.8,.75-1.6,.6-3.2,1.1-4.8,1.5-2.27,.6-4.43,1-6.5,1.2-.33,.67-.7,1.32-1.1,1.95-.4,.63-.8,1.28-1.2,1.95-.53,.73-1.05,1.43-1.55,2.1-.5,.67-1.05,1.3-1.65,1.9-.4,.4-.88,.8-1.45,1.2-.57,.4-1.18,.6-1.85,.6-.33,0-.7-.1-1.1-.3-.4-.27-.68-.67-.85-1.2-.17-.53-.25-1.03-.25-1.5,0-.33,.02-.67,.05-1,.03-.33,.08-.67,.15-1,.07-.4,.17-.82,.3-1.25,.13-.43,.23-.85,.3-1.25,.4-1.6,.9-3.07,1.5-4.4-.2-.53-.3-1-.3-1.4,.07-.67,.27-1.33,.6-2,.33-.67,.67-1.27,1-1.8,.47-.67,1-1.33,1.6-2,.6-.67,1.3-1.27,2.1-1.8,.47-.27,.97-.52,1.5-.75,.53-.23,1.07-.35,1.6-.35,.47,0,.9,.1,1.3,.3,.73,.33,1.25,.87,1.55,1.6,.3,.73,.45,1.5,.45,2.3,0,.47-.03,.97-.1,1.5-.07,.54-.17,1-.3,1.4-.2,.67-.45,1.32-.75,1.95-.3,.63-.58,1.25-.85,1.85,.93-.13,1.85-.28,2.75-.45,.9-.17,1.78-.38,2.65-.65,.47-.07,.92-.18,1.35-.35,.43-.17,.88-.32,1.35-.45,.87-.27,1.77-.57,2.7-.9,.93-.33,1.83-.73,2.7-1.2,.4-.2,.8-.3,1.2-.3Zm-18.6,9c.4-.47,.75-.98,1.05-1.55,.3-.57,.62-1.12,.95-1.65h-2.4c-1,0-1.9-.13-2.7-.4l-1.5,3.3c-.2,.53-.38,1.08-.55,1.65-.17,.57-.28,1.12-.35,1.65-.07,.2-.1,.5-.1,.9v.4c0,.07,.02,.1,.05,.1s.05,.03,.05,.1c.13,0,.23-.03,.3-.1,.33-.07,.67-.18,1-.35,.33-.17,.63-.35,.9-.55,.6-.53,1.18-1.08,1.75-1.65s1.08-1.18,1.55-1.85Zm-4.5-19c-.33-.13-.5-.37-.5-.7,0-.2,.03-.37,.1-.5,.13-.27,.43-.53,.9-.8,1.33-1.13,2.65-2.3,3.95-3.5s2.55-2.43,3.75-3.7c.27-.27,.57-.5,.9-.7,.33-.2,.67-.3,1-.3h.2c.93,.13,1.4,.67,1.4,1.6,0,.33-.07,.6-.2,.8-.13,.27-.43,.63-.9,1.1-.53,.53-1.1,1.03-1.7,1.5-.6,.47-1.23,.83-1.9,1.1-.2,.13-.4,.23-.6,.3-.2,.07-.37,.13-.5,.2-.4,.2-.75,.43-1.05,.7-.3,.27-.62,.54-.95,.8-.33,.27-.7,.53-1.1,.8-.4,.27-.8,.53-1.2,.8-.13,.13-.32,.27-.55,.4-.23,.13-.48,.2-.75,.2-.13,0-.23-.03-.3-.1Zm7.1,14.4c.53-1.27,.97-2.7,1.3-4.3,.07-.4,.12-.78,.15-1.15,.03-.37,.05-.75,.05-1.15-.07-.33-.13-.67-.2-1-.07-.33-.17-.63-.3-.9-.33-.4-.7-.6-1.1-.6-.33,0-.68,.08-1.05,.25-.37,.17-.68,.32-.95,.45-.6,.4-1.2,.9-1.8,1.5-.13,.13-.35,.35-.65,.65-.3,.3-.52,.55-.65,.75h.5c.67,.2,1.1,.6,1.3,1.2v.3c0,.13-.07,.33-.2,.6-.07,.2-.13,.38-.2,.55-.07,.17-.17,.35-.3,.55-.2,.33-.38,.68-.55,1.05-.17,.37-.32,.72-.45,1.05,.6,.2,1.33,.3,2.2,.3h1.85c.37,0,.72-.03,1.05-.1Zm3.2-15.6c.07-.13,.2-.28,.4-.45,.2-.17,.33-.28,.4-.35,1.4-1.13,2.75-2.3,4.05-3.5,1.3-1.2,2.55-2.43,3.75-3.7,.27-.27,.57-.5,.9-.7,.33-.2,.67-.3,1-.3h.2c.93,.13,1.4,.63,1.4,1.5,0,.27-.1,.57-.3,.9-.07,.27-.2,.5-.4,.7-.2,.2-.4,.4-.6,.6-.47,.47-.97,.9-1.5,1.3-.53,.4-1.13,.73-1.8,1-.2,.07-.42,.17-.65,.3-.23,.13-.45,.23-.65,.3-.73,.4-1.43,.9-2.1,1.5-.67,.6-1.37,1.13-2.1,1.6-.13,.13-.32,.27-.55,.4-.23,.13-.48,.2-.75,.2-.13,0-.23-.03-.3-.1-.33-.13-.5-.37-.5-.7,0-.2,.03-.37,.1-.5Z"></path><path class="cls-1" d="M1072.48,6.7c.07,.13,.1,.33,.1,.6,0,.33-.03,.57-.1,.7-.13,1.07-.38,2.12-.75,3.15-.37,1.03-.78,2.02-1.25,2.95-.87,1.93-1.8,3.82-2.8,5.65-1,1.83-1.97,3.68-2.9,5.55l-1.9,3.7c-1.27,2.53-2.57,5-3.9,7.4-1.33,2.4-2.67,4.8-4,7.2-.73,1.27-1.43,2.5-2.1,3.7-.67,1.2-1.33,2.4-2,3.6-.33,.54-.68,1.1-1.05,1.7-.37,.6-.75,1.2-1.15,1.8l-1.5,2.6c-.27,.53-.5,1.08-.7,1.65-.2,.57-.43,1.12-.7,1.65-2.13,5.13-4.22,10.27-6.25,15.4-2.03,5.13-4.02,10.27-5.95,15.4-.93,2.6-1.87,5.2-2.8,7.8-.93,2.6-1.77,5.23-2.5,7.9-.4,1.33-.78,2.67-1.15,4-.37,1.33-.68,2.67-.95,4-.07,.27-.12,.57-.15,.9-.03,.33-.08,.67-.15,1-.07,.33-.1,.67-.1,1v1.7c.07,.13,.12,.28,.15,.45,.03,.17,.15,.25,.35,.25h.6c.2,0,.37,.03,.5,.1,.2,.2,.3,.4,.3,.6s-.07,.37-.2,.5c-.4,.47-.9,.7-1.5,.7-1,0-1.67-.47-2-1.4-.27-.6-.4-1.33-.4-2.2,0-.33,.02-.65,.05-.95,.03-.3,.08-.62,.15-.95,.07-.33,.13-.68,.2-1.05,.07-.37,.13-.72,.2-1.05,.27-1.4,.58-2.78,.95-4.15,.37-1.37,.75-2.72,1.15-4.05,.4-1.33,.83-2.67,1.3-4,.47-1.33,.93-2.63,1.4-3.9,.47-1.27,.93-2.57,1.4-3.9,.47-1.33,.97-2.63,1.5-3.9,.93-2.6,1.93-5.18,3-7.75,1.07-2.57,2.13-5.12,3.2-7.65,.67-1.73,1.38-3.48,2.15-5.25,.77-1.77,1.52-3.48,2.25-5.15-.8,1.27-1.6,2.5-2.4,3.7-.8,1.2-1.6,2.4-2.4,3.6-1.53,2.33-3.12,4.63-4.75,6.9-1.63,2.27-3.35,4.47-5.15,6.6-.87,1.13-1.77,2.23-2.7,3.3-.93,1.07-1.93,2.07-3,3-.53,.53-1.13,1.03-1.8,1.5-.67,.47-1.33,.83-2,1.1-.6,.27-1.33,.4-2.2,.4-.8,0-1.47-.13-2-.4-.93-.53-1.5-1.3-1.7-2.3-.07-.27-.12-.52-.15-.75-.03-.23-.05-.48-.05-.75,0-1,.17-2,.5-3,.47-1.4,1.05-2.75,1.75-4.05,.7-1.3,1.45-2.55,2.25-3.75,1-1.53,2.1-3.03,3.3-4.5,1.2-1.47,2.57-2.73,4.1-3.8,.67-.47,1.37-.87,2.1-1.2,.73-.33,1.5-.5,2.3-.5,1.67,0,3,.5,4,1.5,.4,.4,.73,.8,1,1.2,.27,.4,.5,.8,.7,1.2,.13,.4,.2,.73,.2,1l2.4-3.3c2.73-3.8,5.33-7.7,7.8-11.7,1.13-2.47,2.27-4.97,3.4-7.5,1.13-2.53,2.23-5.07,3.3-7.6,.6-1.33,1.18-2.62,1.75-3.85,.57-1.23,1.15-2.48,1.75-3.75,.53-1.27,1.1-2.52,1.7-3.75,.6-1.23,1.2-2.48,1.8-3.75,.53-1.27,1.1-2.53,1.7-3.8,.6-1.27,1.17-2.53,1.7-3.8,.53-1.27,1.08-2.53,1.65-3.8,.57-1.27,1.15-2.53,1.75-3.8,.47-.93,.93-1.88,1.4-2.85,.47-.97,.97-1.88,1.5-2.75,.33-.47,.67-1,1-1.6,.33-.6,.73-1.03,1.2-1.3,.33-.2,.63-.3,.9-.3,.73,0,1.2,.4,1.4,1.2Zm-40.7,71.4c.13-.2,.28-.38,.45-.55,.17-.17,.32-.35,.45-.55h-.3c-.27,0-.53-.07-.8-.2-.53-.33-.97-.77-1.3-1.3-.27-.73-.7-1.17-1.3-1.3h-.2c-.33,0-.7,.1-1.1,.3-.4,.2-.77,.4-1.1,.6-.73,.53-1.43,1.15-2.1,1.85-.67,.7-1.3,1.38-1.9,2.05-.67,.73-1.32,1.5-1.95,2.3-.63,.8-1.22,1.63-1.75,2.5-.53,.8-1.05,1.6-1.55,2.4-.5,.8-.92,1.67-1.25,2.6-.13,.33-.27,.68-.4,1.05-.13,.37-.2,.75-.2,1.15,0,.13,.02,.23,.05,.3,.03,.07,.05,.13,.05,.2,0,.2,.13,.3,.4,.3,.13,0,.25,.02,.35,.05,.1,.03,.22,.05,.35,.05s.27-.02,.4-.05c.13-.03,.23-.05,.3-.05,.6-.2,1.17-.47,1.7-.8,.53-.33,1.03-.67,1.5-1,1.13-.87,2.2-1.77,3.2-2.7,1-.93,1.93-1.9,2.8-2.9,.87-1,1.75-2.02,2.65-3.05,.9-1.03,1.75-2.12,2.55-3.25Zm36.6-64.8v-.1l-.2,.4-3,5.4c-.33,.6-.67,1.2-1,1.8-.33,.6-.67,1.2-1,1.8-.33,.6-.67,1.2-1,1.8-.33,.6-.67,1.23-1,1.9-.33,.6-.63,1.2-.9,1.8-.27,.6-.57,1.23-.9,1.9-.6,1.27-1.2,2.52-1.8,3.75-.6,1.23-1.17,2.48-1.7,3.75-.6,1.27-1.18,2.53-1.75,3.8-.57,1.27-1.15,2.53-1.75,3.8-.47,1.13-.97,2.3-1.5,3.5-.53,1.2-1.07,2.4-1.6,3.6,.87-1.47,1.73-2.93,2.6-4.4,.87-1.47,1.73-2.97,2.6-4.5,.67-1.2,1.32-2.4,1.95-3.6,.63-1.2,1.28-2.43,1.95-3.7,1.27-2.4,2.53-4.83,3.8-7.3,.33-.67,.65-1.3,.95-1.9s.58-1.23,.85-1.9c.13-.33,.28-.65,.45-.95,.17-.3,.32-.62,.45-.95,.13-.27,.27-.57,.4-.9,.13-.33,.27-.67,.4-1,.53-1.27,1.02-2.57,1.45-3.9,.43-1.33,.85-2.63,1.25-3.9Z"></path><path class="cls-1" d="M1068.87,76.8v.2c0,.27-.08,.48-.25,.65-.17,.17-.35,.35-.55,.55-.53,.67-1.08,1.28-1.65,1.85s-1.15,1.15-1.75,1.75c-1.53,1.53-3.1,3-4.7,4.4-1.67,1.53-3.4,3.07-5.2,4.6-.73,.53-1.45,1.07-2.15,1.6-.7,.53-1.48,.93-2.35,1.2-.27,.13-.53,.23-.8,.3-.27,.07-.57,.1-.9,.1s-.57-.03-.7-.1c-.73-.2-1.27-.7-1.6-1.5-.2-.4-.33-.82-.4-1.25-.07-.43-.1-.85-.1-1.25v-.7c.07-.27,.1-.57,.1-.9s.03-.63,.1-.9c.4-2.13,.95-4.27,1.65-6.4,.7-2.13,1.45-4.2,2.25-6.2l2.1-4.5c.33-.67,.93-1,1.8-1,.67,0,1.13,.23,1.4,.7,.2,.27,.3,.63,.3,1.1,0,.13-.02,.27-.05,.4-.03,.13-.08,.27-.15,.4-.93,2.2-1.92,4.37-2.95,6.5-1.03,2.13-1.98,4.33-2.85,6.6-.27,.67-.5,1.38-.7,2.15-.2,.77-.37,1.52-.5,2.25-.07,.2-.1,.42-.1,.65v.65c0,.47,.07,.8,.2,1,.07,.13,.27,.2,.6,.2,.4,0,.67-.03,.8-.1,.87-.2,1.67-.52,2.4-.95,.73-.43,1.43-.88,2.1-1.35,.93-.6,1.8-1.23,2.6-1.9,.8-.67,1.6-1.37,2.4-2.1,.8-.73,1.57-1.5,2.3-2.3,.73-.8,1.47-1.57,2.2-2.3l2.2-2.4c.27-.33,.52-.63,.75-.9,.23-.27,.52-.57,.85-.9,.13-.27,.37-.4,.7-.4h.1c.2,0,.37,.17,.5,.5Zm-12-15.6l-.6,.3c-.53,0-.93-.27-1.2-.8-.27-.4-.4-.77-.4-1.1,0-.2,.07-.37,.2-.5,.27-.27,.53-.52,.8-.75,.27-.23,.57-.48,.9-.75,.2-.2,.4-.38,.6-.55,.2-.17,.43-.35,.7-.55,.13-.2,.28-.4,.45-.6,.17-.2,.35-.4,.55-.6,.27-.27,.6-.4,1-.4,.87,0,1.37,.4,1.5,1.2v.2c0,.47-.13,.88-.4,1.25-.27,.37-.53,.72-.8,1.05-.47,.53-.98,1.02-1.55,1.45-.57,.43-1.15,.82-1.75,1.15Z"></path><path class="cls-1" d="M1107.97,76.3h.1c.27,.07,.4,.3,.4,.7v.3c-.13,.47-.33,.83-.6,1.1-.53,.54-1.1,1.08-1.7,1.65-.6,.57-1.17,1.12-1.7,1.65l-2.4,2.1c-.4,.33-.8,.68-1.2,1.05-.4,.37-.8,.68-1.2,.95-1.67,1.33-3.4,2.6-5.2,3.8-1.8,1.2-3.67,2.23-5.6,3.1-.93,.46-1.92,.88-2.95,1.25-1.03,.37-2.12,.62-3.25,.75-.33,.07-.65,.12-.95,.15-.3,.03-.62,.05-.95,.05-.27,0-.5-.02-.7-.05-.2-.03-.43-.05-.7-.05-2.33-.2-4.33-1.1-6-2.7-.47-.33-.85-.72-1.15-1.15-.3-.43-.62-.88-.95-1.35-.27-.33-.48-.68-.65-1.05-.17-.37-.35-.72-.55-1.05-.47,.6-.92,1.22-1.35,1.85-.43,.63-.88,1.28-1.35,1.95-.53,.87-1.07,1.72-1.6,2.55-.53,.83-1.03,1.68-1.5,2.55-.27,.4-.5,.82-.7,1.25s-.43,.85-.7,1.25c-.33,.4-.7,.6-1.1,.6-.27,0-.47-.03-.6-.1-.47-.27-.7-.63-.7-1.1,0-.07,.02-.13,.05-.2,.03-.07,.05-.13,.05-.2,.27-.8,.53-1.62,.8-2.45,.27-.83,.53-1.65,.8-2.45l1.8-4.8c.6-1.53,1.22-3.1,1.85-4.7,.63-1.6,1.28-3.17,1.95-4.7,.07-.13,.12-.27,.15-.4,.03-.13,.08-.27,.15-.4l-.2-.2c-.27-.27-.4-.5-.4-.7v-.2c0-.2,.1-.4,.3-.6l1.8-3.3c.47-.73,.9-1.48,1.3-2.25,.4-.77,.83-1.48,1.3-2.15l.2-.3c.6-1.33,1.2-2.68,1.8-4.05,.6-1.37,1.23-2.68,1.9-3.95,1.47-3.07,2.97-6.12,4.5-9.15,1.53-3.03,3.07-6.05,4.6-9.05,1.53-2.87,3.17-5.83,4.9-8.9l2.4-4.5c.4-.73,.8-1.47,1.2-2.2,.4-.73,.8-1.47,1.2-2.2,.53-1,1.08-2,1.65-3,.57-1,1.18-1.97,1.85-2.9,.33-.53,.72-1.1,1.15-1.7,.43-.6,.92-1.03,1.45-1.3,.13-.07,.27-.12,.4-.15,.13-.03,.27-.05,.4-.05,.8,0,1.27,.37,1.4,1.1v.3c0,.73-.17,1.43-.5,2.1-.47,1.2-1,2.38-1.6,3.55-.6,1.17-1.23,2.28-1.9,3.35-.8,1.47-1.62,2.93-2.45,4.4-.83,1.47-1.68,2.93-2.55,4.4-.87,1.47-1.7,2.93-2.5,4.4-.8,1.47-1.63,2.97-2.5,4.5-1.67,2.93-3.3,5.88-4.9,8.85-1.6,2.97-3.2,5.95-4.8,8.95-.67,1.13-1.3,2.23-1.9,3.3-.6,1.07-1.2,2.17-1.8,3.3l-1.3,2.2c-.4,.73-.8,1.47-1.2,2.2-.4,.73-.83,1.47-1.3,2.2l-1.2,2.2c0,.07-.03,.1-.1,.1-.07,.2-.17,.42-.3,.65-.13,.23-.27,.45-.4,.65-.07,.07-.12,.12-.15,.15-.03,.03-.08,.08-.15,.15-.07,.2-.13,.4-.2,.6-.07,.2-.13,.4-.2,.6-.6,1.47-1.17,2.98-1.7,4.55s-1.07,3.12-1.6,4.65c.47-.67,.95-1.35,1.45-2.05s1.02-1.38,1.55-2.05c-.13-.47-.2-.73-.2-.8v-.2c0-.33,.1-.53,.3-.6,.4-.27,.8-.52,1.2-.75,.4-.23,.8-.45,1.2-.65,.87-.87,1.75-1.75,2.65-2.65,.9-.9,1.82-1.75,2.75-2.55,2.47-2.07,5-3.77,7.6-5.1,.73-.33,1.45-.65,2.15-.95,.7-.3,1.45-.55,2.25-.75,.4-.07,.82-.15,1.25-.25,.43-.1,.88-.15,1.35-.15s.83,.03,1.1,.1c1,.2,1.5,.8,1.5,1.8,0,.53-.13,.97-.4,1.3-.27,.33-.55,.62-.85,.85-.3,.23-.62,.45-.95,.65-.93,.6-1.92,1.15-2.95,1.65-1.03,.5-2.05,1.02-3.05,1.55-1.33,.6-2.68,1.2-4.05,1.8-1.37,.6-2.72,1.17-4.05,1.7-.47,.2-.9,.4-1.3,.6s-.83,.37-1.3,.5c-.47,.47-.92,.93-1.35,1.4-.43,.47-.85,.93-1.25,1.4-.27,.33-.52,.65-.75,.95-.23,.3-.48,.62-.75,.95,.13,.47,.32,.92,.55,1.35,.23,.43,.48,.85,.75,1.25,.53,.8,1.17,1.55,1.9,2.25,.73,.7,1.53,1.22,2.4,1.55,1,.46,2.17,.7,3.5,.7,.4,0,.78-.02,1.15-.05,.37-.03,.75-.08,1.15-.15,2-.33,3.92-1,5.75-2,1.83-1,3.58-2.07,5.25-3.2,.87-.53,1.7-1.12,2.5-1.75,.8-.63,1.6-1.28,2.4-1.95,.8-.73,1.6-1.43,2.4-2.1,.8-.67,1.57-1.33,2.3-2,.53-.53,1.1-1.07,1.7-1.6,.6-.53,1.17-1.07,1.7-1.6,.47-.47,.97-.7,1.5-.7Zm-21.8-33.7c-1.4,2.67-2.75,5.33-4.05,8-1.3,2.67-2.62,5.33-3.95,8,1.67-2.67,3.3-5.33,4.9-8,1.6-2.67,3.17-5.37,4.7-8.1,.93-1.53,1.77-3,2.5-4.4,.4-.73,.8-1.48,1.2-2.25,.4-.77,.77-1.52,1.1-2.25l.6-1.1,.5-1.2c.2-.4,.4-.78,.6-1.15,.2-.37,.37-.75,.5-1.15,.2-.47,.4-.9,.6-1.3,.2-.4,.4-.83,.6-1.3-.13,.13-.27,.3-.4,.5-.13,.2-.27,.37-.4,.5l-1.5,2.1c-.47,.73-.92,1.45-1.35,2.15-.43,.7-.88,1.42-1.35,2.15-.8,1.47-1.6,2.93-2.4,4.4-.8,1.47-1.6,2.93-2.4,4.4Zm-.5,31c-.93,.53-1.85,1.08-2.75,1.65-.9,.57-1.78,1.18-2.65,1.85,.73-.33,1.48-.7,2.25-1.1,.77-.4,1.52-.77,2.25-1.1l3.9-2.1c.33-.13,.63-.3,.9-.5,.27-.2,.53-.37,.8-.5-.13,.07-.27,.1-.4,.1s-.27,.04-.4,.1c-.67,.2-1.32,.43-1.95,.7-.63,.27-1.28,.57-1.95,.9Z"></path><path class="cls-1" d="M1108.97,96.2v.3c0,.27-.08,.5-.25,.7-.17,.2-.32,.4-.45,.6-.07,.13-.15,.23-.25,.3-.1,.07-.18,.13-.25,.2l-.5,.5c-.2,.2-.4,.3-.6,.3-.53,0-.9-.23-1.1-.7-.07-.07-.1-.12-.1-.15,0-.03-.03-.08-.1-.15v-.3l-.2-.2c-.13-.4-.2-.67-.2-.8,0-.07,.03-.13,.1-.2l.3-.3c.2-.2,.37-.33,.5-.4,.27-.27,.47-.43,.6-.5,.2-.13,.4-.23,.6-.3,.2-.07,.4-.1,.6-.1h.3c.53,.2,.87,.6,1,1.2Zm31-65c0,.4-.03,.67-.1,.8-.13,.33-.32,.63-.55,.9-.23,.27-.45,.53-.65,.8l-1.1,1.6c0,.07-.03,.1-.1,.1-.67,.93-1.32,1.88-1.95,2.85-.63,.97-1.28,1.95-1.95,2.95-.4,.6-.8,1.2-1.2,1.8-.4,.6-.77,1.2-1.1,1.8-2.67,4.27-5.17,8.67-7.5,13.2-.33,.53-.63,1.03-.9,1.5-.27,.47-.53,.97-.8,1.5-.13,.4-.3,.8-.5,1.2s-.4,.8-.6,1.2c-.07,.2-.23,.43-.5,.7l-.3,.6c-.53,1.13-1.08,2.27-1.65,3.4-.57,1.13-1.12,2.27-1.65,3.4l-3,6.9c-.27,.6-.52,1.18-.75,1.75-.23,.57-.45,1.12-.65,1.65-.13,.27-.27,.57-.4,.9-.13,.33-.23,.63-.3,.9-.07,.13-.13,.32-.2,.55-.07,.23-.17,.42-.3,.55-.2,.2-.53,.3-1,.3-.33,0-.67-.1-1-.3-.33-.2-.53-.47-.6-.8v-.2c0-.2,.03-.4,.1-.6,.07-.2,.17-.4,.3-.6,.13-.33,.25-.63,.35-.9,.1-.27,.22-.57,.35-.9,.27-.6,.53-1.18,.8-1.75,.27-.57,.53-1.15,.8-1.75,.6-1.07,1.22-2.17,1.85-3.3,.63-1.13,1.28-2.23,1.95-3.3,.53-1,1.1-2,1.7-3,.6-1,1.17-2,1.7-3-.2-.2-.33-.37-.4-.5-.13-.4-.2-.7-.2-.9,0-.13,.02-.23,.05-.3,.03-.07,.05-.13,.05-.2,.07-.27,.18-.53,.35-.8,.17-.27,.28-.53,.35-.8,.13-.33,.28-.63,.45-.9,.17-.27,.32-.53,.45-.8,.8-1.4,1.62-2.77,2.45-4.1,.83-1.33,1.65-2.73,2.45-4.2,.4-.73,.78-1.43,1.15-2.1,.37-.67,.75-1.33,1.15-2l4.8-8.4,2.3-4.2c.2-.27,.4-.58,.6-.95,.2-.37,.4-.72,.6-1.05,.2-.33,.38-.68,.55-1.05,.17-.37,.35-.72,.55-1.05,.33-.53,.8-.87,1.4-1h.3c.53,0,1,.2,1.4,.6,.4,.4,.6,.83,.6,1.3Z"></path></g><path class="cls-1" d="M1154.33,18.39c0-6.76,5.25-12.12,12.15-12.12s12.08,5.22,12.08,12.05-5.32,12.18-12.15,12.18-12.08-5.35-12.08-12.12Zm22.24-.07c0-5.77-4.26-10.16-10.09-10.16s-10.19,4.5-10.19,10.23,4.32,10.23,10.12,10.23,10.16-4.53,10.16-10.3Zm-17.02,.07c0-4.08,3.02-7,7.24-7,2.61,0,4.67,1.17,5.73,2.99l-2.51,1.65c-.75-1.2-1.92-1.72-3.26-1.72-2.2,0-3.91,1.58-3.91,4.08s1.72,4.08,3.91,4.08c1.34,0,2.51-.51,3.26-1.72l2.51,1.58c-1.06,1.89-3.12,3.06-5.73,3.06-4.22,0-7.24-2.92-7.24-7Z"></path></g></g></svg>