<svg xmlns="http://www.w3.org/2000/svg" id="R&#xE9;teg_2" viewBox="0 0 81.74 988"><defs><style>.cls-1,.cls-2{fill:#222;}.cls-2{stroke:#000;stroke-miterlimit:10;stroke-width:2px;}</style></defs><g id="R&#xE9;teg_1"><g><path class="cls-1" d="M81.74,29.99l-29.41-12.9v-4.16S81.74,0,81.74,0V4.54s-24.15,10.59-24.15,10.59l24.15,10.67v4.2Z"></path><path class="cls-1" d="M55.99,69.35h-3.65v-21.34h29.41v20.75h-3.65v-16.55s-9.03,0-9.03,0v14.74h-3.57v-14.74s-9.49,0-9.49,0v17.14Z"></path><path class="cls-1" d="M81.74,90.43v12.39c0,9.45-5.96,15.88-14.7,15.88-8.74,0-14.7-6.43-14.7-15.88v-12.39h29.41Zm-25.75,12.14c0,7.27,4.45,11.93,11.05,11.93,6.6,0,11.05-4.66,11.05-11.93v-7.94s-22.1,0-22.1,0v7.94Z"></path><path class="cls-1" d="M81.74,139.4v12.39c0,9.45-5.96,15.88-14.7,15.88-8.74,0-14.7-6.43-14.7-15.88v-12.39h29.41Zm-25.75,12.14c0,7.27,4.45,11.93,11.05,11.93,6.6,0,11.05-4.66,11.05-11.93v-7.94s-22.1,0-22.1,0v7.94Z"></path><path class="cls-1" d="M78.09,218.15h-10.25s0,14.75,0,14.75h-3.61v-14.75s-11.89,0-11.89,0v-4.2h29.41v20.75h-3.65v-16.55Z"></path><path class="cls-1" d="M55.99,276.24h-3.65v-21.34h29.41v20.75h-3.65v-16.55s-9.03,0-9.03,0v14.74h-3.57v-14.74s-9.49,0-9.49,0v17.14Z"></path><path class="cls-1" d="M81.74,297.32v4.2h-25.75s0,15.92,0,15.92h-3.65v-20.12h29.41Z"></path><path class="cls-1" d="M81.74,387.66l-29.41-12.9v-4.16s29.41-12.94,29.41-12.94v4.54s-24.15,10.59-24.15,10.59l24.15,10.67v4.2Z"></path><path class="cls-1" d="M55.99,427.02h-3.65v-21.34h29.41v20.75h-3.65v-16.55s-9.03,0-9.03,0v14.74h-3.57v-14.74s-9.49,0-9.49,0v17.14Z"></path><path class="cls-1" d="M81.74,448.1v4.2h-25.75s0,15.92,0,15.92h-3.65v-20.12h29.41Z"></path><path class="cls-1" d="M55.99,508.66h-3.65v-21.34h29.41v20.75h-3.65v-16.55s-9.03,0-9.03,0v14.75h-3.57v-14.75s-9.49,0-9.49,0v17.14Z"></path><path class="cls-1" d="M52.34,557.01l21.42-.04-17.85-10.63v-1.93s17.73-10.63,17.73-10.63h-21.3v-4.03h29.41v3.44s-20.67,12.27-20.67,12.27l20.67,12.1v3.44s-29.41,.04-29.41,.04v-4.03Z"></path><path class="cls-1" d="M7.69,23.19V7.56S.34,4.33,.34,4.33V0S29.74,13.32,29.74,13.32v4.16S.34,30.83,.34,30.83v-4.41s7.35-3.23,7.35-3.23Zm3.36-1.47l14.41-6.34-14.41-6.34v12.69Z"></path><path class="cls-1" d="M13.4,84.63l-5.46-5.38H.34v-4.2H29.74v4.2H13.32s16.42,15.96,16.42,15.96v4.79s-13.23-12.56-13.23-12.56L.34,100.8v-4.92s13.06-11.26,13.06-11.26Z"></path><path class="cls-1" d="M7.69,137.09v-15.63s-7.35-3.23-7.35-3.23v-4.33s29.41,13.32,29.41,13.32v4.16S.34,144.74,.34,144.74v-4.41s7.35-3.23,7.35-3.23Zm3.36-1.47l14.41-6.34-14.41-6.34v12.69Z"></path><path class="cls-1" d="M19.49,187.11c-6.38,0-10.25-4.62-10.25-12.27v-7.27s-8.91,0-8.91,0v-4.2H29.74v11.47c0,7.64-3.87,12.27-10.25,12.27Zm0-4.2c4.2,0,6.6-2.81,6.6-8.19v-7.14s-13.19,0-13.19,0v7.14c0,5.38,2.39,8.19,6.59,8.19Z"></path><path class="cls-1" d="M15.04,205.59c8.7,0,15.04,6.64,15.04,15.59,0,4.54-1.55,8.48-4.58,11.17l-2.65-2.73c2.39-2.27,3.49-5.04,3.49-8.28,0-6.64-4.79-11.55-11.3-11.55s-11.3,4.91-11.3,11.55c0,3.23,1.13,6.01,3.53,8.28l-2.65,2.73C1.6,229.66,0,225.71,0,221.13c0-8.91,6.34-15.54,15.04-15.54Z"></path><path class="cls-1" d="M3.7,249.81l3.28,1.55c-1.97,2.18-3.4,5.92-3.4,9.7,0,5.08,1.97,7.27,4.54,7.27,7.18,0,2.65-17.81,13.57-17.81,4.54,0,8.4,3.53,8.4,11.26,0,3.44-.92,7.02-2.6,9.45l-3.36-1.39c1.64-2.56,2.39-5.46,2.39-8.06,0-5-2.1-7.14-4.66-7.14-7.18,0-2.69,17.81-13.48,17.81-4.5,0-8.36-3.61-8.36-11.38,0-4.49,1.51-8.9,3.7-11.26Z"></path><path class="cls-1" d="M15.04,290.47c8.61,0,15.04,6.64,15.04,15.67,0,8.95-6.38,15.58-15.04,15.58S0,315.09,0,306.14c0-9.03,6.43-15.67,15.04-15.67Zm0,27.05c6.51,0,11.3-4.87,11.3-11.38,0-6.6-4.79-11.47-11.3-11.47s-11.3,4.87-11.3,11.47c0,6.51,4.79,11.38,11.3,11.38Z"></path><path class="cls-1" d="M29.74,342.42v4.2H3.99s0,15.92,0,15.92H.34v-20.12H29.74Z"></path><path class="cls-1" d="M7.69,400.51v-15.63s-7.35-3.23-7.35-3.23v-4.33s29.41,13.32,29.41,13.32v4.16S.34,408.16,.34,408.16v-4.41s7.35-3.23,7.35-3.23Zm3.36-1.47l14.41-6.34-14.41-6.34v12.69Z"></path><path class="cls-1" d="M26.09,431.17v-10.08h3.65v24.32h-3.65v-10.08s-25.75,0-25.75,0v-4.16H26.09Z"></path><path class="cls-1" d="M15.04,461.45c8.61,0,15.04,6.64,15.04,15.67s-6.38,15.58-15.04,15.58S0,486.07,0,477.12s6.43-15.67,15.04-15.67Zm0,27.05c6.51,0,11.3-4.87,11.3-11.38s-4.79-11.47-11.3-11.47-11.3,4.87-11.3,11.47,4.79,11.38,11.3,11.38Z"></path><path class="cls-1" d="M26.09,518.82v-10.08h3.65v24.32h-3.65v-10.08s-25.75,0-25.75,0v-4.16H26.09Z"></path><path class="cls-1" d="M2.77,551.25c1.51,0,2.69,1.18,2.69,2.77s-1.18,2.69-2.69,2.69-2.69-1.13-2.69-2.69,1.22-2.77,2.69-2.77Zm26.97,.38v4.75s-20.12-.8-20.12-.8v-3.19s20.12-.76,20.12-.76Z"></path></g><g><line class="cls-2" x1="40.87" y1="988" x2="40.87" y2="691.5"></line><text></text></g></g></svg>